<svg xmlns="http://www.w3.org/2000/svg" xmlns:xlink="http://www.w3.org/1999/xlink" width="800" zoomAndPan="magnify" viewBox="0 0 600 599.999999" height="800" preserveAspectRatio="xMidYMid meet" version="1.0"><defs><g/><clipPath id="07ca340847"><path d="M 0 0 L 600 0 L 600 600 L 0 600 Z M 0 0 " clip-rule="nonzero"/></clipPath><clipPath id="f7ab87f6db"><rect x="0" width="600" y="0" height="600"/></clipPath><clipPath id="daa3ba1d9a"><rect x="0" width="58" y="0" height="27"/></clipPath><clipPath id="157111513f"><rect x="0" width="198" y="0" height="387"/></clipPath><clipPath id="358d159a04"><rect x="0" width="244" y="0" height="301"/></clipPath><clipPath id="c90c4d7cc0"><rect x="0" width="244" y="0" height="301"/></clipPath><clipPath id="a5ca19d544"><rect x="0" width="244" y="0" height="300"/></clipPath><clipPath id="cc7f783c76"><rect x="0" width="244" y="0" height="301"/></clipPath><clipPath id="58bd02a567"><rect x="0" width="174" y="0" height="50"/></clipPath><clipPath id="b3efb70e4c"><rect x="0" width="203" y="0" height="387"/></clipPath><clipPath id="753f0e7037"><path d="M 29 269 L 102 269 L 102 336 L 29 336 Z M 29 269 " clip-rule="nonzero"/></clipPath><clipPath id="a4afb01b52"><rect x="0" width="274" y="0" height="336"/></clipPath><clipPath id="67de750c24"><rect x="0" width="275" y="0" height="347"/></clipPath><clipPath id="2964d42c15"><rect x="0" width="275" y="0" height="346"/></clipPath><clipPath id="2aa72ba17a"><path d="M 176 0 L 248 0 L 248 48 L 176 48 Z M 176 0 " clip-rule="nonzero"/></clipPath><clipPath id="fc1e033fc0"><rect x="0" width="274" y="0" height="308"/></clipPath><clipPath id="36e6229f2b"><rect x="0" width="201" y="0" height="50"/></clipPath><clipPath id="b55a8e9e38"><rect x="0" width="57" y="0" height="27"/></clipPath></defs><rect x="-60" width="720" fill="#ffffff" y="-60" height="719.999999" fill-opacity="1"/><rect x="-60" width="720" fill="#e4e2dd" y="-60" height="719.999999" fill-opacity="1"/><g transform="matrix(1, 0, 0, 1, 0, -0.000000000000034788)"><g clip-path="url(#f7ab87f6db)"><g clip-path="url(#07ca340847)"><rect x="-132" width="864" fill="#fe1817" height="863.999999" y="-132" fill-opacity="1"/></g></g></g><g transform="matrix(1, 0, 0, 1, 476, 57)"><g clip-path="url(#daa3ba1d9a)"><g fill="#1e1e1e" fill-opacity="1"><g transform="translate(2.810263, 21.186946)"><g><path d="M 1.65625 0.609375 L -0.109375 0.609375 L 5.015625 -14.65625 L 6.765625 -14.65625 Z M 1.65625 0.609375 "/></g></g></g><g fill="#1e1e1e" fill-opacity="1"><g transform="translate(9.467538, 21.186946)"><g><path d="M 1.65625 0.609375 L -0.109375 0.609375 L 5.015625 -14.65625 L 6.765625 -14.65625 Z M 1.65625 0.609375 "/></g></g></g><g fill="#1e1e1e" fill-opacity="1"><g transform="translate(16.124813, 21.186946)"><g><path d="M 1.65625 0.609375 L -0.109375 0.609375 L 5.015625 -14.65625 L 6.765625 -14.65625 Z M 1.65625 0.609375 "/></g></g></g><g fill="#1e1e1e" fill-opacity="1"><g transform="translate(22.782088, 21.186946)"><g><path d="M 1.65625 0.609375 L -0.109375 0.609375 L 5.015625 -14.65625 L 6.765625 -14.65625 Z M 1.65625 0.609375 "/></g></g></g><g fill="#1e1e1e" fill-opacity="1"><g transform="translate(29.439363, 21.186946)"><g><path d="M 1.65625 0.609375 L -0.109375 0.609375 L 5.015625 -14.65625 L 6.765625 -14.65625 Z M 1.65625 0.609375 "/></g></g></g><g fill="#1e1e1e" fill-opacity="1"><g transform="translate(36.096638, 21.186946)"><g><path d="M 1.65625 0.609375 L -0.109375 0.609375 L 5.015625 -14.65625 L 6.765625 -14.65625 Z M 1.65625 0.609375 "/></g></g></g><g fill="#1e1e1e" fill-opacity="1"><g transform="translate(42.753913, 21.186946)"><g><path d="M 1.65625 0.609375 L -0.109375 0.609375 L 5.015625 -14.65625 L 6.765625 -14.65625 Z M 1.65625 0.609375 "/></g></g></g><g fill="#1e1e1e" fill-opacity="1"><g transform="translate(49.411187, 21.186946)"><g><path d="M 1.65625 0.609375 L -0.109375 0.609375 L 5.015625 -14.65625 L 6.765625 -14.65625 Z M 1.65625 0.609375 "/></g></g></g></g></g><g transform="matrix(1, 0, 0, 1, 306, 113)"><g clip-path="url(#157111513f)"><g fill="#1e1e1e" fill-opacity="1"><g transform="translate(12.525421, 270.251682)"><g><path d="M -1.921875 -95.359375 L -1.921875 -136.484375 C -1.921875 -147.515625 0.703125 -157.515625 5.953125 -166.484375 C 11.210938 -175.453125 18.328125 -182.628906 27.296875 -188.015625 C 36.265625 -193.398438 46.257812 -196.09375 57.28125 -196.09375 L 134.5625 -196.09375 C 138.15625 -196.09375 141.425781 -195 144.375 -192.8125 C 147.320312 -190.632812 149.4375 -188.007812 150.71875 -184.9375 L 164.9375 -170.71875 C 168.269531 -167.382812 169.9375 -163.664062 169.9375 -159.5625 L 169.9375 -134.5625 C 169.9375 -130.46875 168.332031 -126.753906 165.125 -123.421875 C 161.925781 -120.085938 158.148438 -118.421875 153.796875 -118.421875 L 123.421875 -118.421875 C 134.703125 -113.804688 143.546875 -106.242188 149.953125 -95.734375 L 160.328125 -85.734375 C 165.710938 -80.359375 169.941406 -74.144531 173.015625 -67.09375 C 176.085938 -60.039062 177.625 -52.414062 177.625 -44.21875 L 177.625 -28.84375 C 177.625 -18.070312 175.0625 -8.265625 169.9375 0.578125 C 164.8125 9.421875 157.828125 16.46875 148.984375 21.71875 C 140.140625 26.976562 130.335938 29.609375 119.578125 29.609375 L 38.453125 29.609375 C 34.347656 29.609375 30.628906 27.941406 27.296875 24.609375 L 12.6875 10.375 C 9.613281 9.09375 7.050781 6.914062 5 3.84375 C 2.945312 0.769531 1.921875 -2.429688 1.921875 -5.765625 L 1.921875 -30.765625 C 1.921875 -35.367188 3.648438 -39.398438 7.109375 -42.859375 C 10.566406 -46.328125 14.601562 -48.0625 19.21875 -48.0625 L 35.75 -48.0625 C 33.957031 -48.570312 32.421875 -49.40625 31.140625 -50.5625 C 29.859375 -51.71875 28.578125 -52.9375 27.296875 -54.21875 L 13.453125 -68.046875 C 8.835938 -70.867188 5.117188 -74.648438 2.296875 -79.390625 C -0.515625 -84.140625 -1.921875 -89.460938 -1.921875 -95.359375 Z M -1.921875 -95.359375 "/></g></g></g></g></g><g transform="matrix(1, 0, 0, 1, 268, 135)"><g clip-path="url(#358d159a04)"><g fill="#fe1817" fill-opacity="1"><g transform="translate(62.211554, 286.582038)"><g><path d="M 12.03125 -16.859375 C 9.582031 -13.128906 6.953125 -10.519531 4.140625 -9.03125 C 1.335938 -7.539062 -1.269531 -6.863281 -3.6875 -7 C -6.101562 -7.144531 -8.078125 -7.71875 -9.609375 -8.71875 L -3.109375 -18.625 C -2.160156 -18.007812 -1 -17.9375 0.375 -18.40625 C 1.75 -18.882812 3.054688 -20.066406 4.296875 -21.953125 C 5.503906 -23.796875 6.113281 -25.335938 6.125 -26.578125 C 6.132812 -27.828125 5.734375 -28.71875 4.921875 -29.25 C 4.066406 -29.800781 3.203125 -29.945312 2.328125 -29.6875 C 1.453125 -29.4375 0.421875 -28.644531 -0.765625 -27.3125 L -4.9375 -22.71875 C -11.320312 -15.644531 -17.316406 -13.953125 -22.921875 -17.640625 C -24.898438 -18.929688 -26.335938 -20.707031 -27.234375 -22.96875 C -28.140625 -25.226562 -28.332031 -27.828125 -27.8125 -30.765625 C -27.289062 -33.703125 -25.984375 -36.769531 -23.890625 -39.96875 C -21.765625 -43.195312 -19.378906 -45.582031 -16.734375 -47.125 C -14.085938 -48.664062 -11.519531 -49.453125 -9.03125 -49.484375 C -6.539062 -49.515625 -4.460938 -48.988281 -2.796875 -47.90625 L -9.25 -38.0625 C -10.144531 -38.644531 -11.25 -38.675781 -12.5625 -38.15625 C -13.875 -37.632812 -15.070312 -36.546875 -16.15625 -34.890625 C -17.21875 -33.265625 -17.726562 -31.8125 -17.6875 -30.53125 C -17.644531 -29.257812 -17.226562 -28.363281 -16.4375 -27.84375 C -15.125 -26.976562 -13.414062 -27.71875 -11.3125 -30.0625 L -6.96875 -34.921875 C -0.800781 -41.859375 5.3125 -43.34375 11.375 -39.375 C 13.351562 -38.070312 14.785156 -36.304688 15.671875 -34.078125 C 16.566406 -31.859375 16.734375 -29.273438 16.171875 -26.328125 C 15.617188 -23.378906 14.238281 -20.222656 12.03125 -16.859375 Z M 12.03125 -16.859375 "/></g></g></g><g fill="#fe1817" fill-opacity="1"><g transform="translate(85.013639, 251.832499)"><g><path d="M 11.234375 -17.109375 C 9.078125 -13.828125 6.628906 -11.863281 3.890625 -11.21875 C 1.160156 -10.570312 -1.707031 -11.234375 -4.71875 -13.203125 L -20.09375 -23.296875 L -23.625 -17.921875 L -33.25 -24.234375 L -29.71875 -29.609375 L -40.359375 -36.59375 L -33.6875 -46.78125 L -23.046875 -39.796875 L -17.96875 -47.53125 L -8.34375 -41.21875 L -13.421875 -33.484375 L -0.203125 -24.8125 C 0.648438 -24.25 1.375 -24.03125 1.96875 -24.15625 C 2.570312 -24.28125 3.148438 -24.769531 3.703125 -25.625 L 7.234375 -31 L 16.390625 -24.984375 Z M 11.234375 -17.109375 "/></g></g></g><g fill="#fe1817" fill-opacity="1"><g transform="translate(103.396733, 223.81734)"><g><path d="M 12.171875 -17.0625 C 10.460938 -14.457031 8.351562 -12.515625 5.84375 -11.234375 C 3.332031 -9.960938 0.613281 -9.46875 -2.3125 -9.75 C -5.238281 -10.03125 -8.140625 -11.113281 -11.015625 -13 L -31.703125 -26.578125 L -25.03125 -36.765625 L -6.03125 -24.296875 C -4.144531 -23.054688 -2.234375 -22.617188 -0.296875 -22.984375 C 1.640625 -23.347656 3.226562 -24.472656 4.46875 -26.359375 C 5.707031 -28.242188 6.109375 -30.144531 5.671875 -32.0625 C 5.234375 -33.988281 4.070312 -35.570312 2.1875 -36.8125 L -16.8125 -49.28125 L -10.140625 -59.46875 L 24.21875 -36.921875 L 18.484375 -28.171875 L 15 -29.46875 L 14.78125 -29.125 C 15.238281 -27.550781 15.257812 -25.671875 14.84375 -23.484375 C 14.4375 -21.304688 13.546875 -19.164062 12.171875 -17.0625 Z M 12.171875 -17.0625 "/></g></g></g><g fill="#fe1817" fill-opacity="1"><g transform="translate(130.264321, 182.872125)"><g><path d="M 12.703125 -17.875 C 10.773438 -14.945312 8.265625 -12.765625 5.171875 -11.328125 C 2.078125 -9.898438 -1.296875 -9.359375 -4.953125 -9.703125 C -8.617188 -10.046875 -12.175781 -11.347656 -15.625 -13.609375 C -19.082031 -15.878906 -21.695312 -18.628906 -23.46875 -21.859375 C -25.25 -25.085938 -26.097656 -28.40625 -26.015625 -31.8125 C -25.929688 -35.21875 -24.925781 -38.382812 -23 -41.3125 C -21.625 -43.414062 -20.015625 -45.039062 -18.171875 -46.1875 C -16.328125 -47.332031 -14.722656 -47.960938 -13.359375 -48.078125 L -13.125 -48.421875 L -28.890625 -58.765625 L -22.21875 -68.9375 L 24.9375 -38 L 19.1875 -29.234375 L 15.375 -30.78125 L 15.15625 -30.453125 C 15.726562 -28.785156 15.84375 -26.851562 15.5 -24.65625 C 15.164062 -22.46875 14.234375 -20.207031 12.703125 -17.875 Z M 4.578125 -25.90625 C 6.023438 -28.113281 6.441406 -30.441406 5.828125 -32.890625 C 5.222656 -35.347656 3.644531 -37.414062 1.09375 -39.09375 C -1.46875 -40.78125 -3.984375 -41.40625 -6.453125 -40.96875 C -8.929688 -40.53125 -10.894531 -39.207031 -12.34375 -37 C -13.789062 -34.800781 -14.21875 -32.484375 -13.625 -30.046875 C -13.039062 -27.609375 -11.46875 -25.546875 -8.90625 -23.859375 C -6.351562 -22.179688 -3.828125 -21.550781 -1.328125 -21.96875 C 1.160156 -22.394531 3.128906 -23.707031 4.578125 -25.90625 Z M 4.578125 -25.90625 "/></g></g></g><g fill="#fe1817" fill-opacity="1"><g transform="translate(158.059886, 140.512706)"><g><path d="M 9.328125 -14.21875 L 2.65625 -4.03125 L -31.703125 -26.578125 L -25.03125 -36.765625 Z M -29.84375 -40.28125 L -36.828125 -29.640625 L -45.65625 -35.4375 L -38.671875 -46.078125 Z M -29.84375 -40.28125 "/></g></g></g><g fill="#fe1817" fill-opacity="1"><g transform="translate(170.035392, 122.262475)"><g><path d="M 14.015625 -19.890625 C 11.773438 -16.472656 8.984375 -13.90625 5.640625 -12.1875 C 2.296875 -10.46875 -1.238281 -9.722656 -4.96875 -9.953125 C -8.707031 -10.179688 -12.257812 -11.398438 -15.625 -13.609375 C -19 -15.828125 -21.535156 -18.601562 -23.234375 -21.9375 C -24.941406 -25.269531 -25.671875 -28.8125 -25.421875 -32.5625 C -25.171875 -36.320312 -23.925781 -39.910156 -21.6875 -43.328125 C -19.445312 -46.734375 -16.65625 -49.296875 -13.3125 -51.015625 C -9.96875 -52.742188 -6.425781 -53.492188 -2.6875 -53.265625 C 1.050781 -53.035156 4.609375 -51.8125 7.984375 -49.59375 C 11.347656 -47.382812 13.878906 -44.613281 15.578125 -41.28125 C 17.273438 -37.945312 18 -34.398438 17.75 -30.640625 C 17.5 -26.878906 16.253906 -23.296875 14.015625 -19.890625 Z M 4.59375 -26.09375 C 6.039062 -28.289062 6.472656 -30.660156 5.890625 -33.203125 C 5.304688 -35.742188 3.78125 -37.820312 1.3125 -39.4375 C -1.164062 -41.0625 -3.6875 -41.632812 -6.25 -41.15625 C -8.8125 -40.675781 -10.816406 -39.335938 -12.265625 -37.140625 C -13.703125 -34.941406 -14.128906 -32.570312 -13.546875 -30.03125 C -12.960938 -27.5 -11.429688 -25.421875 -8.953125 -23.796875 C -6.484375 -22.179688 -3.96875 -21.609375 -1.40625 -22.078125 C 1.15625 -22.554688 3.15625 -23.894531 4.59375 -26.09375 Z M 4.59375 -26.09375 "/></g></g></g><g fill="#fe1817" fill-opacity="1"><g transform="translate(196.726209, 81.586651)"><g><path d="M 12.03125 -16.859375 C 9.582031 -13.128906 6.953125 -10.519531 4.140625 -9.03125 C 1.335938 -7.539062 -1.269531 -6.863281 -3.6875 -7 C -6.101562 -7.144531 -8.078125 -7.71875 -9.609375 -8.71875 L -3.109375 -18.625 C -2.160156 -18.007812 -1 -17.9375 0.375 -18.40625 C 1.75 -18.882812 3.054688 -20.066406 4.296875 -21.953125 C 5.503906 -23.796875 6.113281 -25.335938 6.125 -26.578125 C 6.132812 -27.828125 5.734375 -28.71875 4.921875 -29.25 C 4.066406 -29.800781 3.203125 -29.945312 2.328125 -29.6875 C 1.453125 -29.4375 0.421875 -28.644531 -0.765625 -27.3125 L -4.9375 -22.71875 C -11.320312 -15.644531 -17.316406 -13.953125 -22.921875 -17.640625 C -24.898438 -18.929688 -26.335938 -20.707031 -27.234375 -22.96875 C -28.140625 -25.226562 -28.332031 -27.828125 -27.8125 -30.765625 C -27.289062 -33.703125 -25.984375 -36.769531 -23.890625 -39.96875 C -21.765625 -43.195312 -19.378906 -45.582031 -16.734375 -47.125 C -14.085938 -48.664062 -11.519531 -49.453125 -9.03125 -49.484375 C -6.539062 -49.515625 -4.460938 -48.988281 -2.796875 -47.90625 L -9.25 -38.0625 C -10.144531 -38.644531 -11.25 -38.675781 -12.5625 -38.15625 C -13.875 -37.632812 -15.070312 -36.546875 -16.15625 -34.890625 C -17.21875 -33.265625 -17.726562 -31.8125 -17.6875 -30.53125 C -17.644531 -29.257812 -17.226562 -28.363281 -16.4375 -27.84375 C -15.125 -26.976562 -13.414062 -27.71875 -11.3125 -30.0625 L -6.96875 -34.921875 C -0.800781 -41.859375 5.3125 -43.34375 11.375 -39.375 C 13.351562 -38.070312 14.785156 -36.304688 15.671875 -34.078125 C 16.566406 -31.859375 16.734375 -29.273438 16.171875 -26.328125 C 15.617188 -23.378906 14.238281 -20.222656 12.03125 -16.859375 Z M 12.03125 -16.859375 "/></g></g></g></g></g><g transform="matrix(1, 0, 0, 1, 296, 208)"><g clip-path="url(#c90c4d7cc0)"><g fill="#fe1817" fill-opacity="1"><g transform="translate(61.923907, 286.946625)"><g><path d="M 12.03125 -16.859375 C 9.582031 -13.128906 6.953125 -10.519531 4.140625 -9.03125 C 1.335938 -7.539062 -1.269531 -6.863281 -3.6875 -7 C -6.101562 -7.144531 -8.078125 -7.71875 -9.609375 -8.71875 L -3.109375 -18.625 C -2.160156 -18.007812 -1 -17.9375 0.375 -18.40625 C 1.75 -18.882812 3.054688 -20.066406 4.296875 -21.953125 C 5.503906 -23.796875 6.113281 -25.335938 6.125 -26.578125 C 6.132812 -27.828125 5.734375 -28.71875 4.921875 -29.25 C 4.066406 -29.800781 3.203125 -29.945312 2.328125 -29.6875 C 1.453125 -29.4375 0.421875 -28.644531 -0.765625 -27.3125 L -4.9375 -22.71875 C -11.320312 -15.644531 -17.316406 -13.953125 -22.921875 -17.640625 C -24.898438 -18.929688 -26.335938 -20.707031 -27.234375 -22.96875 C -28.140625 -25.226562 -28.332031 -27.828125 -27.8125 -30.765625 C -27.289062 -33.703125 -25.984375 -36.769531 -23.890625 -39.96875 C -21.765625 -43.195312 -19.378906 -45.582031 -16.734375 -47.125 C -14.085938 -48.664062 -11.519531 -49.453125 -9.03125 -49.484375 C -6.539062 -49.515625 -4.460938 -48.988281 -2.796875 -47.90625 L -9.25 -38.0625 C -10.144531 -38.644531 -11.25 -38.675781 -12.5625 -38.15625 C -13.875 -37.632812 -15.070312 -36.546875 -16.15625 -34.890625 C -17.21875 -33.265625 -17.726562 -31.8125 -17.6875 -30.53125 C -17.644531 -29.257812 -17.226562 -28.363281 -16.4375 -27.84375 C -15.125 -26.976562 -13.414062 -27.71875 -11.3125 -30.0625 L -6.96875 -34.921875 C -0.800781 -41.859375 5.3125 -43.34375 11.375 -39.375 C 13.351562 -38.070312 14.785156 -36.304688 15.671875 -34.078125 C 16.566406 -31.859375 16.734375 -29.273438 16.171875 -26.328125 C 15.617188 -23.378906 14.238281 -20.222656 12.03125 -16.859375 Z M 12.03125 -16.859375 "/></g></g></g><g fill="#fe1817" fill-opacity="1"><g transform="translate(84.725992, 252.197086)"><g><path d="M 11.234375 -17.109375 C 9.078125 -13.828125 6.628906 -11.863281 3.890625 -11.21875 C 1.160156 -10.570312 -1.707031 -11.234375 -4.71875 -13.203125 L -20.09375 -23.296875 L -23.625 -17.921875 L -33.25 -24.234375 L -29.71875 -29.609375 L -40.359375 -36.59375 L -33.6875 -46.78125 L -23.046875 -39.796875 L -17.96875 -47.53125 L -8.34375 -41.21875 L -13.421875 -33.484375 L -0.203125 -24.8125 C 0.648438 -24.25 1.375 -24.03125 1.96875 -24.15625 C 2.570312 -24.28125 3.148438 -24.769531 3.703125 -25.625 L 7.234375 -31 L 16.390625 -24.984375 Z M 11.234375 -17.109375 "/></g></g></g><g fill="#fe1817" fill-opacity="1"><g transform="translate(103.109086, 224.181926)"><g><path d="M 12.171875 -17.0625 C 10.460938 -14.457031 8.351562 -12.515625 5.84375 -11.234375 C 3.332031 -9.960938 0.613281 -9.46875 -2.3125 -9.75 C -5.238281 -10.03125 -8.140625 -11.113281 -11.015625 -13 L -31.703125 -26.578125 L -25.03125 -36.765625 L -6.03125 -24.296875 C -4.144531 -23.054688 -2.234375 -22.617188 -0.296875 -22.984375 C 1.640625 -23.347656 3.226562 -24.472656 4.46875 -26.359375 C 5.707031 -28.242188 6.109375 -30.144531 5.671875 -32.0625 C 5.234375 -33.988281 4.070312 -35.570312 2.1875 -36.8125 L -16.8125 -49.28125 L -10.140625 -59.46875 L 24.21875 -36.921875 L 18.484375 -28.171875 L 15 -29.46875 L 14.78125 -29.125 C 15.238281 -27.550781 15.257812 -25.671875 14.84375 -23.484375 C 14.4375 -21.304688 13.546875 -19.164062 12.171875 -17.0625 Z M 12.171875 -17.0625 "/></g></g></g><g fill="#fe1817" fill-opacity="1"><g transform="translate(129.976673, 183.236711)"><g><path d="M 12.703125 -17.875 C 10.773438 -14.945312 8.265625 -12.765625 5.171875 -11.328125 C 2.078125 -9.898438 -1.296875 -9.359375 -4.953125 -9.703125 C -8.617188 -10.046875 -12.175781 -11.347656 -15.625 -13.609375 C -19.082031 -15.878906 -21.695312 -18.628906 -23.46875 -21.859375 C -25.25 -25.085938 -26.097656 -28.40625 -26.015625 -31.8125 C -25.929688 -35.21875 -24.925781 -38.382812 -23 -41.3125 C -21.625 -43.414062 -20.015625 -45.039062 -18.171875 -46.1875 C -16.328125 -47.332031 -14.722656 -47.960938 -13.359375 -48.078125 L -13.125 -48.421875 L -28.890625 -58.765625 L -22.21875 -68.9375 L 24.9375 -38 L 19.1875 -29.234375 L 15.375 -30.78125 L 15.15625 -30.453125 C 15.726562 -28.785156 15.84375 -26.851562 15.5 -24.65625 C 15.164062 -22.46875 14.234375 -20.207031 12.703125 -17.875 Z M 4.578125 -25.90625 C 6.023438 -28.113281 6.441406 -30.441406 5.828125 -32.890625 C 5.222656 -35.347656 3.644531 -37.414062 1.09375 -39.09375 C -1.46875 -40.78125 -3.984375 -41.40625 -6.453125 -40.96875 C -8.929688 -40.53125 -10.894531 -39.207031 -12.34375 -37 C -13.789062 -34.800781 -14.21875 -32.484375 -13.625 -30.046875 C -13.039062 -27.609375 -11.46875 -25.546875 -8.90625 -23.859375 C -6.351562 -22.179688 -3.828125 -21.550781 -1.328125 -21.96875 C 1.160156 -22.394531 3.128906 -23.707031 4.578125 -25.90625 Z M 4.578125 -25.90625 "/></g></g></g><g fill="#fe1817" fill-opacity="1"><g transform="translate(157.772238, 140.877292)"><g><path d="M 9.328125 -14.21875 L 2.65625 -4.03125 L -31.703125 -26.578125 L -25.03125 -36.765625 Z M -29.84375 -40.28125 L -36.828125 -29.640625 L -45.65625 -35.4375 L -38.671875 -46.078125 Z M -29.84375 -40.28125 "/></g></g></g><g fill="#fe1817" fill-opacity="1"><g transform="translate(169.747744, 122.627061)"><g><path d="M 14.015625 -19.890625 C 11.773438 -16.472656 8.984375 -13.90625 5.640625 -12.1875 C 2.296875 -10.46875 -1.238281 -9.722656 -4.96875 -9.953125 C -8.707031 -10.179688 -12.257812 -11.398438 -15.625 -13.609375 C -19 -15.828125 -21.535156 -18.601562 -23.234375 -21.9375 C -24.941406 -25.269531 -25.671875 -28.8125 -25.421875 -32.5625 C -25.171875 -36.320312 -23.925781 -39.910156 -21.6875 -43.328125 C -19.445312 -46.734375 -16.65625 -49.296875 -13.3125 -51.015625 C -9.96875 -52.742188 -6.425781 -53.492188 -2.6875 -53.265625 C 1.050781 -53.035156 4.609375 -51.8125 7.984375 -49.59375 C 11.347656 -47.382812 13.878906 -44.613281 15.578125 -41.28125 C 17.273438 -37.945312 18 -34.398438 17.75 -30.640625 C 17.5 -26.878906 16.253906 -23.296875 14.015625 -19.890625 Z M 4.59375 -26.09375 C 6.039062 -28.289062 6.472656 -30.660156 5.890625 -33.203125 C 5.304688 -35.742188 3.78125 -37.820312 1.3125 -39.4375 C -1.164062 -41.0625 -3.6875 -41.632812 -6.25 -41.15625 C -8.8125 -40.675781 -10.816406 -39.335938 -12.265625 -37.140625 C -13.703125 -34.941406 -14.128906 -32.570312 -13.546875 -30.03125 C -12.960938 -27.5 -11.429688 -25.421875 -8.953125 -23.796875 C -6.484375 -22.179688 -3.96875 -21.609375 -1.40625 -22.078125 C 1.15625 -22.554688 3.15625 -23.894531 4.59375 -26.09375 Z M 4.59375 -26.09375 "/></g></g></g><g fill="#fe1817" fill-opacity="1"><g transform="translate(196.438561, 81.951237)"><g><path d="M 12.03125 -16.859375 C 9.582031 -13.128906 6.953125 -10.519531 4.140625 -9.03125 C 1.335938 -7.539062 -1.269531 -6.863281 -3.6875 -7 C -6.101562 -7.144531 -8.078125 -7.71875 -9.609375 -8.71875 L -3.109375 -18.625 C -2.160156 -18.007812 -1 -17.9375 0.375 -18.40625 C 1.75 -18.882812 3.054688 -20.066406 4.296875 -21.953125 C 5.503906 -23.796875 6.113281 -25.335938 6.125 -26.578125 C 6.132812 -27.828125 5.734375 -28.71875 4.921875 -29.25 C 4.066406 -29.800781 3.203125 -29.945312 2.328125 -29.6875 C 1.453125 -29.4375 0.421875 -28.644531 -0.765625 -27.3125 L -4.9375 -22.71875 C -11.320312 -15.644531 -17.316406 -13.953125 -22.921875 -17.640625 C -24.898438 -18.929688 -26.335938 -20.707031 -27.234375 -22.96875 C -28.140625 -25.226562 -28.332031 -27.828125 -27.8125 -30.765625 C -27.289062 -33.703125 -25.984375 -36.769531 -23.890625 -39.96875 C -21.765625 -43.195312 -19.378906 -45.582031 -16.734375 -47.125 C -14.085938 -48.664062 -11.519531 -49.453125 -9.03125 -49.484375 C -6.539062 -49.515625 -4.460938 -48.988281 -2.796875 -47.90625 L -9.25 -38.0625 C -10.144531 -38.644531 -11.25 -38.675781 -12.5625 -38.15625 C -13.875 -37.632812 -15.070312 -36.546875 -16.15625 -34.890625 C -17.21875 -33.265625 -17.726562 -31.8125 -17.6875 -30.53125 C -17.644531 -29.257812 -17.226562 -28.363281 -16.4375 -27.84375 C -15.125 -26.976562 -13.414062 -27.71875 -11.3125 -30.0625 L -6.96875 -34.921875 C -0.800781 -41.859375 5.3125 -43.34375 11.375 -39.375 C 13.351562 -38.070312 14.785156 -36.304688 15.671875 -34.078125 C 16.566406 -31.859375 16.734375 -29.273438 16.171875 -26.328125 C 15.617188 -23.378906 14.238281 -20.222656 12.03125 -16.859375 Z M 12.03125 -16.859375 "/></g></g></g></g></g><g transform="matrix(1, 0, 0, 1, 320, 285)"><g clip-path="url(#a5ca19d544)"><g fill="#fe1817" fill-opacity="1"><g transform="translate(61.962783, 286.330634)"><g><path d="M 12.03125 -16.859375 C 9.582031 -13.128906 6.953125 -10.519531 4.140625 -9.03125 C 1.335938 -7.539062 -1.269531 -6.863281 -3.6875 -7 C -6.101562 -7.144531 -8.078125 -7.71875 -9.609375 -8.71875 L -3.109375 -18.625 C -2.160156 -18.007812 -1 -17.9375 0.375 -18.40625 C 1.75 -18.882812 3.054688 -20.066406 4.296875 -21.953125 C 5.503906 -23.796875 6.113281 -25.335938 6.125 -26.578125 C 6.132812 -27.828125 5.734375 -28.71875 4.921875 -29.25 C 4.066406 -29.800781 3.203125 -29.945312 2.328125 -29.6875 C 1.453125 -29.4375 0.421875 -28.644531 -0.765625 -27.3125 L -4.9375 -22.71875 C -11.320312 -15.644531 -17.316406 -13.953125 -22.921875 -17.640625 C -24.898438 -18.929688 -26.335938 -20.707031 -27.234375 -22.96875 C -28.140625 -25.226562 -28.332031 -27.828125 -27.8125 -30.765625 C -27.289062 -33.703125 -25.984375 -36.769531 -23.890625 -39.96875 C -21.765625 -43.195312 -19.378906 -45.582031 -16.734375 -47.125 C -14.085938 -48.664062 -11.519531 -49.453125 -9.03125 -49.484375 C -6.539062 -49.515625 -4.460938 -48.988281 -2.796875 -47.90625 L -9.25 -38.0625 C -10.144531 -38.644531 -11.25 -38.675781 -12.5625 -38.15625 C -13.875 -37.632812 -15.070312 -36.546875 -16.15625 -34.890625 C -17.21875 -33.265625 -17.726562 -31.8125 -17.6875 -30.53125 C -17.644531 -29.257812 -17.226562 -28.363281 -16.4375 -27.84375 C -15.125 -26.976562 -13.414062 -27.71875 -11.3125 -30.0625 L -6.96875 -34.921875 C -0.800781 -41.859375 5.3125 -43.34375 11.375 -39.375 C 13.351562 -38.070312 14.785156 -36.304688 15.671875 -34.078125 C 16.566406 -31.859375 16.734375 -29.273438 16.171875 -26.328125 C 15.617188 -23.378906 14.238281 -20.222656 12.03125 -16.859375 Z M 12.03125 -16.859375 "/></g></g></g><g fill="#fe1817" fill-opacity="1"><g transform="translate(84.764868, 251.581095)"><g><path d="M 11.234375 -17.109375 C 9.078125 -13.828125 6.628906 -11.863281 3.890625 -11.21875 C 1.160156 -10.570312 -1.707031 -11.234375 -4.71875 -13.203125 L -20.09375 -23.296875 L -23.625 -17.921875 L -33.25 -24.234375 L -29.71875 -29.609375 L -40.359375 -36.59375 L -33.6875 -46.78125 L -23.046875 -39.796875 L -17.96875 -47.53125 L -8.34375 -41.21875 L -13.421875 -33.484375 L -0.203125 -24.8125 C 0.648438 -24.25 1.375 -24.03125 1.96875 -24.15625 C 2.570312 -24.28125 3.148438 -24.769531 3.703125 -25.625 L 7.234375 -31 L 16.390625 -24.984375 Z M 11.234375 -17.109375 "/></g></g></g><g fill="#fe1817" fill-opacity="1"><g transform="translate(103.147962, 223.565936)"><g><path d="M 12.171875 -17.0625 C 10.460938 -14.457031 8.351562 -12.515625 5.84375 -11.234375 C 3.332031 -9.960938 0.613281 -9.46875 -2.3125 -9.75 C -5.238281 -10.03125 -8.140625 -11.113281 -11.015625 -13 L -31.703125 -26.578125 L -25.03125 -36.765625 L -6.03125 -24.296875 C -4.144531 -23.054688 -2.234375 -22.617188 -0.296875 -22.984375 C 1.640625 -23.347656 3.226562 -24.472656 4.46875 -26.359375 C 5.707031 -28.242188 6.109375 -30.144531 5.671875 -32.0625 C 5.234375 -33.988281 4.070312 -35.570312 2.1875 -36.8125 L -16.8125 -49.28125 L -10.140625 -59.46875 L 24.21875 -36.921875 L 18.484375 -28.171875 L 15 -29.46875 L 14.78125 -29.125 C 15.238281 -27.550781 15.257812 -25.671875 14.84375 -23.484375 C 14.4375 -21.304688 13.546875 -19.164062 12.171875 -17.0625 Z M 12.171875 -17.0625 "/></g></g></g><g fill="#fe1817" fill-opacity="1"><g transform="translate(130.015549, 182.620721)"><g><path d="M 12.703125 -17.875 C 10.773438 -14.945312 8.265625 -12.765625 5.171875 -11.328125 C 2.078125 -9.898438 -1.296875 -9.359375 -4.953125 -9.703125 C -8.617188 -10.046875 -12.175781 -11.347656 -15.625 -13.609375 C -19.082031 -15.878906 -21.695312 -18.628906 -23.46875 -21.859375 C -25.25 -25.085938 -26.097656 -28.40625 -26.015625 -31.8125 C -25.929688 -35.21875 -24.925781 -38.382812 -23 -41.3125 C -21.625 -43.414062 -20.015625 -45.039062 -18.171875 -46.1875 C -16.328125 -47.332031 -14.722656 -47.960938 -13.359375 -48.078125 L -13.125 -48.421875 L -28.890625 -58.765625 L -22.21875 -68.9375 L 24.9375 -38 L 19.1875 -29.234375 L 15.375 -30.78125 L 15.15625 -30.453125 C 15.726562 -28.785156 15.84375 -26.851562 15.5 -24.65625 C 15.164062 -22.46875 14.234375 -20.207031 12.703125 -17.875 Z M 4.578125 -25.90625 C 6.023438 -28.113281 6.441406 -30.441406 5.828125 -32.890625 C 5.222656 -35.347656 3.644531 -37.414062 1.09375 -39.09375 C -1.46875 -40.78125 -3.984375 -41.40625 -6.453125 -40.96875 C -8.929688 -40.53125 -10.894531 -39.207031 -12.34375 -37 C -13.789062 -34.800781 -14.21875 -32.484375 -13.625 -30.046875 C -13.039062 -27.609375 -11.46875 -25.546875 -8.90625 -23.859375 C -6.351562 -22.179688 -3.828125 -21.550781 -1.328125 -21.96875 C 1.160156 -22.394531 3.128906 -23.707031 4.578125 -25.90625 Z M 4.578125 -25.90625 "/></g></g></g><g fill="#fe1817" fill-opacity="1"><g transform="translate(157.811114, 140.261302)"><g><path d="M 9.328125 -14.21875 L 2.65625 -4.03125 L -31.703125 -26.578125 L -25.03125 -36.765625 Z M -29.84375 -40.28125 L -36.828125 -29.640625 L -45.65625 -35.4375 L -38.671875 -46.078125 Z M -29.84375 -40.28125 "/></g></g></g><g fill="#fe1817" fill-opacity="1"><g transform="translate(169.78662, 122.011071)"><g><path d="M 14.015625 -19.890625 C 11.773438 -16.472656 8.984375 -13.90625 5.640625 -12.1875 C 2.296875 -10.46875 -1.238281 -9.722656 -4.96875 -9.953125 C -8.707031 -10.179688 -12.257812 -11.398438 -15.625 -13.609375 C -19 -15.828125 -21.535156 -18.601562 -23.234375 -21.9375 C -24.941406 -25.269531 -25.671875 -28.8125 -25.421875 -32.5625 C -25.171875 -36.320312 -23.925781 -39.910156 -21.6875 -43.328125 C -19.445312 -46.734375 -16.65625 -49.296875 -13.3125 -51.015625 C -9.96875 -52.742188 -6.425781 -53.492188 -2.6875 -53.265625 C 1.050781 -53.035156 4.609375 -51.8125 7.984375 -49.59375 C 11.347656 -47.382812 13.878906 -44.613281 15.578125 -41.28125 C 17.273438 -37.945312 18 -34.398438 17.75 -30.640625 C 17.5 -26.878906 16.253906 -23.296875 14.015625 -19.890625 Z M 4.59375 -26.09375 C 6.039062 -28.289062 6.472656 -30.660156 5.890625 -33.203125 C 5.304688 -35.742188 3.78125 -37.820312 1.3125 -39.4375 C -1.164062 -41.0625 -3.6875 -41.632812 -6.25 -41.15625 C -8.8125 -40.675781 -10.816406 -39.335938 -12.265625 -37.140625 C -13.703125 -34.941406 -14.128906 -32.570312 -13.546875 -30.03125 C -12.960938 -27.5 -11.429688 -25.421875 -8.953125 -23.796875 C -6.484375 -22.179688 -3.96875 -21.609375 -1.40625 -22.078125 C 1.15625 -22.554688 3.15625 -23.894531 4.59375 -26.09375 Z M 4.59375 -26.09375 "/></g></g></g><g fill="#fe1817" fill-opacity="1"><g transform="translate(196.477437, 81.335247)"><g><path d="M 12.03125 -16.859375 C 9.582031 -13.128906 6.953125 -10.519531 4.140625 -9.03125 C 1.335938 -7.539062 -1.269531 -6.863281 -3.6875 -7 C -6.101562 -7.144531 -8.078125 -7.71875 -9.609375 -8.71875 L -3.109375 -18.625 C -2.160156 -18.007812 -1 -17.9375 0.375 -18.40625 C 1.75 -18.882812 3.054688 -20.066406 4.296875 -21.953125 C 5.503906 -23.796875 6.113281 -25.335938 6.125 -26.578125 C 6.132812 -27.828125 5.734375 -28.71875 4.921875 -29.25 C 4.066406 -29.800781 3.203125 -29.945312 2.328125 -29.6875 C 1.453125 -29.4375 0.421875 -28.644531 -0.765625 -27.3125 L -4.9375 -22.71875 C -11.320312 -15.644531 -17.316406 -13.953125 -22.921875 -17.640625 C -24.898438 -18.929688 -26.335938 -20.707031 -27.234375 -22.96875 C -28.140625 -25.226562 -28.332031 -27.828125 -27.8125 -30.765625 C -27.289062 -33.703125 -25.984375 -36.769531 -23.890625 -39.96875 C -21.765625 -43.195312 -19.378906 -45.582031 -16.734375 -47.125 C -14.085938 -48.664062 -11.519531 -49.453125 -9.03125 -49.484375 C -6.539062 -49.515625 -4.460938 -48.988281 -2.796875 -47.90625 L -9.25 -38.0625 C -10.144531 -38.644531 -11.25 -38.675781 -12.5625 -38.15625 C -13.875 -37.632812 -15.070312 -36.546875 -16.15625 -34.890625 C -17.21875 -33.265625 -17.726562 -31.8125 -17.6875 -30.53125 C -17.644531 -29.257812 -17.226562 -28.363281 -16.4375 -27.84375 C -15.125 -26.976562 -13.414062 -27.71875 -11.3125 -30.0625 L -6.96875 -34.921875 C -0.800781 -41.859375 5.3125 -43.34375 11.375 -39.375 C 13.351562 -38.070312 14.785156 -36.304688 15.671875 -34.078125 C 16.566406 -31.859375 16.734375 -29.273438 16.171875 -26.328125 C 15.617188 -23.378906 14.238281 -20.222656 12.03125 -16.859375 Z M 12.03125 -16.859375 "/></g></g></g></g></g><g transform="matrix(1, 0, 0, 1, 240, 65)"><g clip-path="url(#cc7f783c76)"><g fill="#fe1817" fill-opacity="1"><g transform="translate(62.048294, 286.635664)"><g><path d="M 12.03125 -16.859375 C 9.582031 -13.128906 6.953125 -10.519531 4.140625 -9.03125 C 1.335938 -7.539062 -1.269531 -6.863281 -3.6875 -7 C -6.101562 -7.144531 -8.078125 -7.71875 -9.609375 -8.71875 L -3.109375 -18.625 C -2.160156 -18.007812 -1 -17.9375 0.375 -18.40625 C 1.75 -18.882812 3.054688 -20.066406 4.296875 -21.953125 C 5.503906 -23.796875 6.113281 -25.335938 6.125 -26.578125 C 6.132812 -27.828125 5.734375 -28.71875 4.921875 -29.25 C 4.066406 -29.800781 3.203125 -29.945312 2.328125 -29.6875 C 1.453125 -29.4375 0.421875 -28.644531 -0.765625 -27.3125 L -4.9375 -22.71875 C -11.320312 -15.644531 -17.316406 -13.953125 -22.921875 -17.640625 C -24.898438 -18.929688 -26.335938 -20.707031 -27.234375 -22.96875 C -28.140625 -25.226562 -28.332031 -27.828125 -27.8125 -30.765625 C -27.289062 -33.703125 -25.984375 -36.769531 -23.890625 -39.96875 C -21.765625 -43.195312 -19.378906 -45.582031 -16.734375 -47.125 C -14.085938 -48.664062 -11.519531 -49.453125 -9.03125 -49.484375 C -6.539062 -49.515625 -4.460938 -48.988281 -2.796875 -47.90625 L -9.25 -38.0625 C -10.144531 -38.644531 -11.25 -38.675781 -12.5625 -38.15625 C -13.875 -37.632812 -15.070312 -36.546875 -16.15625 -34.890625 C -17.21875 -33.265625 -17.726562 -31.8125 -17.6875 -30.53125 C -17.644531 -29.257812 -17.226562 -28.363281 -16.4375 -27.84375 C -15.125 -26.976562 -13.414062 -27.71875 -11.3125 -30.0625 L -6.96875 -34.921875 C -0.800781 -41.859375 5.3125 -43.34375 11.375 -39.375 C 13.351562 -38.070312 14.785156 -36.304688 15.671875 -34.078125 C 16.566406 -31.859375 16.734375 -29.273438 16.171875 -26.328125 C 15.617188 -23.378906 14.238281 -20.222656 12.03125 -16.859375 Z M 12.03125 -16.859375 "/></g></g></g><g fill="#fe1817" fill-opacity="1"><g transform="translate(84.850379, 251.886125)"><g><path d="M 11.234375 -17.109375 C 9.078125 -13.828125 6.628906 -11.863281 3.890625 -11.21875 C 1.160156 -10.570312 -1.707031 -11.234375 -4.71875 -13.203125 L -20.09375 -23.296875 L -23.625 -17.921875 L -33.25 -24.234375 L -29.71875 -29.609375 L -40.359375 -36.59375 L -33.6875 -46.78125 L -23.046875 -39.796875 L -17.96875 -47.53125 L -8.34375 -41.21875 L -13.421875 -33.484375 L -0.203125 -24.8125 C 0.648438 -24.25 1.375 -24.03125 1.96875 -24.15625 C 2.570312 -24.28125 3.148438 -24.769531 3.703125 -25.625 L 7.234375 -31 L 16.390625 -24.984375 Z M 11.234375 -17.109375 "/></g></g></g><g fill="#fe1817" fill-opacity="1"><g transform="translate(103.233473, 223.870965)"><g><path d="M 12.171875 -17.0625 C 10.460938 -14.457031 8.351562 -12.515625 5.84375 -11.234375 C 3.332031 -9.960938 0.613281 -9.46875 -2.3125 -9.75 C -5.238281 -10.03125 -8.140625 -11.113281 -11.015625 -13 L -31.703125 -26.578125 L -25.03125 -36.765625 L -6.03125 -24.296875 C -4.144531 -23.054688 -2.234375 -22.617188 -0.296875 -22.984375 C 1.640625 -23.347656 3.226562 -24.472656 4.46875 -26.359375 C 5.707031 -28.242188 6.109375 -30.144531 5.671875 -32.0625 C 5.234375 -33.988281 4.070312 -35.570312 2.1875 -36.8125 L -16.8125 -49.28125 L -10.140625 -59.46875 L 24.21875 -36.921875 L 18.484375 -28.171875 L 15 -29.46875 L 14.78125 -29.125 C 15.238281 -27.550781 15.257812 -25.671875 14.84375 -23.484375 C 14.4375 -21.304688 13.546875 -19.164062 12.171875 -17.0625 Z M 12.171875 -17.0625 "/></g></g></g><g fill="#fe1817" fill-opacity="1"><g transform="translate(130.10106, 182.92575)"><g><path d="M 12.703125 -17.875 C 10.773438 -14.945312 8.265625 -12.765625 5.171875 -11.328125 C 2.078125 -9.898438 -1.296875 -9.359375 -4.953125 -9.703125 C -8.617188 -10.046875 -12.175781 -11.347656 -15.625 -13.609375 C -19.082031 -15.878906 -21.695312 -18.628906 -23.46875 -21.859375 C -25.25 -25.085938 -26.097656 -28.40625 -26.015625 -31.8125 C -25.929688 -35.21875 -24.925781 -38.382812 -23 -41.3125 C -21.625 -43.414062 -20.015625 -45.039062 -18.171875 -46.1875 C -16.328125 -47.332031 -14.722656 -47.960938 -13.359375 -48.078125 L -13.125 -48.421875 L -28.890625 -58.765625 L -22.21875 -68.9375 L 24.9375 -38 L 19.1875 -29.234375 L 15.375 -30.78125 L 15.15625 -30.453125 C 15.726562 -28.785156 15.84375 -26.851562 15.5 -24.65625 C 15.164062 -22.46875 14.234375 -20.207031 12.703125 -17.875 Z M 4.578125 -25.90625 C 6.023438 -28.113281 6.441406 -30.441406 5.828125 -32.890625 C 5.222656 -35.347656 3.644531 -37.414062 1.09375 -39.09375 C -1.46875 -40.78125 -3.984375 -41.40625 -6.453125 -40.96875 C -8.929688 -40.53125 -10.894531 -39.207031 -12.34375 -37 C -13.789062 -34.800781 -14.21875 -32.484375 -13.625 -30.046875 C -13.039062 -27.609375 -11.46875 -25.546875 -8.90625 -23.859375 C -6.351562 -22.179688 -3.828125 -21.550781 -1.328125 -21.96875 C 1.160156 -22.394531 3.128906 -23.707031 4.578125 -25.90625 Z M 4.578125 -25.90625 "/></g></g></g><g fill="#fe1817" fill-opacity="1"><g transform="translate(157.896625, 140.566331)"><g><path d="M 9.328125 -14.21875 L 2.65625 -4.03125 L -31.703125 -26.578125 L -25.03125 -36.765625 Z M -29.84375 -40.28125 L -36.828125 -29.640625 L -45.65625 -35.4375 L -38.671875 -46.078125 Z M -29.84375 -40.28125 "/></g></g></g><g fill="#fe1817" fill-opacity="1"><g transform="translate(169.872131, 122.3161)"><g><path d="M 14.015625 -19.890625 C 11.773438 -16.472656 8.984375 -13.90625 5.640625 -12.1875 C 2.296875 -10.46875 -1.238281 -9.722656 -4.96875 -9.953125 C -8.707031 -10.179688 -12.257812 -11.398438 -15.625 -13.609375 C -19 -15.828125 -21.535156 -18.601562 -23.234375 -21.9375 C -24.941406 -25.269531 -25.671875 -28.8125 -25.421875 -32.5625 C -25.171875 -36.320312 -23.925781 -39.910156 -21.6875 -43.328125 C -19.445312 -46.734375 -16.65625 -49.296875 -13.3125 -51.015625 C -9.96875 -52.742188 -6.425781 -53.492188 -2.6875 -53.265625 C 1.050781 -53.035156 4.609375 -51.8125 7.984375 -49.59375 C 11.347656 -47.382812 13.878906 -44.613281 15.578125 -41.28125 C 17.273438 -37.945312 18 -34.398438 17.75 -30.640625 C 17.5 -26.878906 16.253906 -23.296875 14.015625 -19.890625 Z M 4.59375 -26.09375 C 6.039062 -28.289062 6.472656 -30.660156 5.890625 -33.203125 C 5.304688 -35.742188 3.78125 -37.820312 1.3125 -39.4375 C -1.164062 -41.0625 -3.6875 -41.632812 -6.25 -41.15625 C -8.8125 -40.675781 -10.816406 -39.335938 -12.265625 -37.140625 C -13.703125 -34.941406 -14.128906 -32.570312 -13.546875 -30.03125 C -12.960938 -27.5 -11.429688 -25.421875 -8.953125 -23.796875 C -6.484375 -22.179688 -3.96875 -21.609375 -1.40625 -22.078125 C 1.15625 -22.554688 3.15625 -23.894531 4.59375 -26.09375 Z M 4.59375 -26.09375 "/></g></g></g><g fill="#fe1817" fill-opacity="1"><g transform="translate(196.562948, 81.640276)"><g><path d="M 12.03125 -16.859375 C 9.582031 -13.128906 6.953125 -10.519531 4.140625 -9.03125 C 1.335938 -7.539062 -1.269531 -6.863281 -3.6875 -7 C -6.101562 -7.144531 -8.078125 -7.71875 -9.609375 -8.71875 L -3.109375 -18.625 C -2.160156 -18.007812 -1 -17.9375 0.375 -18.40625 C 1.75 -18.882812 3.054688 -20.066406 4.296875 -21.953125 C 5.503906 -23.796875 6.113281 -25.335938 6.125 -26.578125 C 6.132812 -27.828125 5.734375 -28.71875 4.921875 -29.25 C 4.066406 -29.800781 3.203125 -29.945312 2.328125 -29.6875 C 1.453125 -29.4375 0.421875 -28.644531 -0.765625 -27.3125 L -4.9375 -22.71875 C -11.320312 -15.644531 -17.316406 -13.953125 -22.921875 -17.640625 C -24.898438 -18.929688 -26.335938 -20.707031 -27.234375 -22.96875 C -28.140625 -25.226562 -28.332031 -27.828125 -27.8125 -30.765625 C -27.289062 -33.703125 -25.984375 -36.769531 -23.890625 -39.96875 C -21.765625 -43.195312 -19.378906 -45.582031 -16.734375 -47.125 C -14.085938 -48.664062 -11.519531 -49.453125 -9.03125 -49.484375 C -6.539062 -49.515625 -4.460938 -48.988281 -2.796875 -47.90625 L -9.25 -38.0625 C -10.144531 -38.644531 -11.25 -38.675781 -12.5625 -38.15625 C -13.875 -37.632812 -15.070312 -36.546875 -16.15625 -34.890625 C -17.21875 -33.265625 -17.726562 -31.8125 -17.6875 -30.53125 C -17.644531 -29.257812 -17.226562 -28.363281 -16.4375 -27.84375 C -15.125 -26.976562 -13.414062 -27.71875 -11.3125 -30.0625 L -6.96875 -34.921875 C -0.800781 -41.859375 5.3125 -43.34375 11.375 -39.375 C 13.351562 -38.070312 14.785156 -36.304688 15.671875 -34.078125 C 16.566406 -31.859375 16.734375 -29.273438 16.171875 -26.328125 C 15.617188 -23.378906 14.238281 -20.222656 12.03125 -16.859375 Z M 12.03125 -16.859375 "/></g></g></g></g></g><g transform="matrix(1, 0, 0, 1, 323, 416)"><g clip-path="url(#58bd02a567)"><g fill="#1e1e1e" fill-opacity="1"><g transform="translate(0.171764, 36.0941)"><g><path d="M 12.546875 0.390625 C 10.191406 0.390625 8.15625 -0.0078125 6.4375 -0.8125 C 4.726562 -1.625 3.421875 -2.742188 2.515625 -4.171875 C 1.617188 -5.597656 1.171875 -7.195312 1.171875 -8.96875 L 7.453125 -8.96875 C 7.453125 -7.84375 7.894531 -6.914062 8.78125 -6.1875 C 9.664062 -5.457031 10.921875 -5.09375 12.546875 -5.09375 C 14.109375 -5.09375 15.28125 -5.363281 16.0625 -5.90625 C 16.851562 -6.457031 17.25 -7.164062 17.25 -8.03125 C 17.25 -8.757812 16.945312 -9.363281 16.34375 -9.84375 C 15.738281 -10.332031 14.734375 -10.707031 13.328125 -10.96875 L 9.015625 -11.75 C 6.554688 -12.195312 4.734375 -13.046875 3.546875 -14.296875 C 2.359375 -15.554688 1.765625 -17.253906 1.765625 -19.390625 C 1.765625 -20.984375 2.175781 -22.414062 3 -23.6875 C 3.820312 -24.957031 5.007812 -25.960938 6.5625 -26.703125 C 8.113281 -27.453125 9.972656 -27.828125 12.140625 -27.828125 C 14.492188 -27.828125 16.515625 -27.425781 18.203125 -26.625 C 19.890625 -25.832031 21.160156 -24.726562 22.015625 -23.3125 C 22.878906 -21.90625 23.3125 -20.273438 23.3125 -18.421875 L 17.046875 -18.421875 C 17.046875 -19.515625 16.597656 -20.441406 15.703125 -21.203125 C 14.816406 -21.960938 13.628906 -22.34375 12.140625 -22.34375 C 10.835938 -22.34375 9.828125 -22.0625 9.109375 -21.5 C 8.390625 -20.9375 8.03125 -20.234375 8.03125 -19.390625 C 8.03125 -18.691406 8.269531 -18.148438 8.75 -17.765625 C 9.238281 -17.390625 10.109375 -17.082031 11.359375 -16.84375 L 15.671875 -16.0625 C 18.421875 -15.570312 20.414062 -14.695312 21.65625 -13.4375 C 22.894531 -12.1875 23.515625 -10.382812 23.515625 -8.03125 C 23.515625 -6.4375 23.09375 -5 22.25 -3.71875 C 21.414062 -2.4375 20.175781 -1.429688 18.53125 -0.703125 C 16.882812 0.0234375 14.890625 0.390625 12.546875 0.390625 Z M 12.546875 0.390625 "/></g></g></g><g fill="#1e1e1e" fill-opacity="1"><g transform="translate(25.249403, 36.0941)"><g><path d="M 14.6875 0 L 8.421875 0 L 8.421875 -21.359375 L 0.78125 -21.359375 L 0.78125 -27.4375 L 22.34375 -27.4375 L 22.34375 -21.359375 L 14.6875 -21.359375 Z M 14.6875 0 "/></g></g></g><g fill="#1e1e1e" fill-opacity="1"><g transform="translate(48.367845, 36.0941)"><g><path d="M 14.109375 0.390625 C 11.785156 0.390625 9.75 -0.0820312 8 -1.03125 C 6.25 -1.988281 4.898438 -3.347656 3.953125 -5.109375 C 3.015625 -6.878906 2.546875 -8.960938 2.546875 -11.359375 L 2.546875 -27.4375 L 8.8125 -27.4375 L 8.8125 -11.359375 C 8.8125 -10.265625 9.046875 -9.285156 9.515625 -8.421875 C 9.992188 -7.554688 10.632812 -6.882812 11.4375 -6.40625 C 12.25 -5.925781 13.140625 -5.6875 14.109375 -5.6875 C 15.078125 -5.6875 15.960938 -5.925781 16.765625 -6.40625 C 17.578125 -6.882812 18.21875 -7.554688 18.6875 -8.421875 C 19.15625 -9.285156 19.390625 -10.265625 19.390625 -11.359375 L 19.390625 -27.4375 L 25.671875 -27.4375 L 25.671875 -11.359375 C 25.671875 -8.960938 25.195312 -6.878906 24.25 -5.109375 C 23.3125 -3.347656 21.96875 -1.988281 20.21875 -1.03125 C 18.46875 -0.0820312 16.429688 0.390625 14.109375 0.390625 Z M 14.109375 0.390625 "/></g></g></g><g fill="#1e1e1e" fill-opacity="1"><g transform="translate(76.580189, 36.0941)"><g><path d="M 2.75 0 L 2.75 -27.4375 L 12.9375 -27.4375 C 15.382812 -27.4375 17.628906 -26.832031 19.671875 -25.625 C 21.710938 -24.425781 23.316406 -22.78125 24.484375 -20.6875 C 25.660156 -18.601562 26.25 -16.28125 26.25 -13.71875 C 26.25 -11.15625 25.660156 -8.828125 24.484375 -6.734375 C 23.316406 -4.648438 21.710938 -3.003906 19.671875 -1.796875 C 17.628906 -0.597656 15.382812 0 12.9375 0 Z M 12.9375 -6.078125 C 14.238281 -6.078125 15.425781 -6.398438 16.5 -7.046875 C 17.570312 -7.703125 18.421875 -8.609375 19.046875 -9.765625 C 19.671875 -10.929688 19.984375 -12.25 19.984375 -13.71875 C 19.984375 -15.175781 19.671875 -16.484375 19.046875 -17.640625 C 18.421875 -18.804688 17.570312 -19.71875 16.5 -20.375 C 15.425781 -21.03125 14.238281 -21.359375 12.9375 -21.359375 L 9.015625 -21.359375 L 9.015625 -6.078125 Z M 12.9375 -6.078125 "/></g></g></g><g fill="#1e1e1e" fill-opacity="1"><g transform="translate(104.400713, 36.0941)"><g><path d="M 9.015625 0 L 2.75 0 L 2.75 -27.4375 L 9.015625 -27.4375 Z M 9.015625 0 "/></g></g></g><g fill="#1e1e1e" fill-opacity="1"><g transform="translate(116.155844, 36.0941)"><g><path d="M 14.890625 0.390625 C 12.429688 0.390625 10.179688 -0.210938 8.140625 -1.421875 C 6.109375 -2.640625 4.503906 -4.316406 3.328125 -6.453125 C 2.148438 -8.597656 1.5625 -11.019531 1.5625 -13.71875 C 1.5625 -16.40625 2.148438 -18.816406 3.328125 -20.953125 C 4.503906 -23.097656 6.109375 -24.78125 8.140625 -26 C 10.179688 -27.21875 12.429688 -27.828125 14.890625 -27.828125 C 17.347656 -27.828125 19.59375 -27.21875 21.625 -26 C 23.664062 -24.78125 25.273438 -23.097656 26.453125 -20.953125 C 27.628906 -18.816406 28.21875 -16.40625 28.21875 -13.71875 C 28.21875 -11.019531 27.628906 -8.597656 26.453125 -6.453125 C 25.273438 -4.316406 23.664062 -2.640625 21.625 -1.421875 C 19.59375 -0.210938 17.347656 0.390625 14.890625 0.390625 Z M 14.890625 -5.6875 C 16.191406 -5.6875 17.378906 -6.019531 18.453125 -6.6875 C 19.523438 -7.351562 20.375 -8.289062 21 -9.5 C 21.625 -10.71875 21.9375 -12.125 21.9375 -13.71875 C 21.9375 -15.3125 21.625 -16.710938 21 -17.921875 C 20.375 -19.140625 19.523438 -20.082031 18.453125 -20.75 C 17.378906 -21.414062 16.191406 -21.75 14.890625 -21.75 C 13.585938 -21.75 12.398438 -21.414062 11.328125 -20.75 C 10.253906 -20.082031 9.40625 -19.140625 8.78125 -17.921875 C 8.15625 -16.710938 7.84375 -15.3125 7.84375 -13.71875 C 7.84375 -12.125 8.15625 -10.71875 8.78125 -9.5 C 9.40625 -8.289062 10.253906 -7.351562 11.328125 -6.6875 C 12.398438 -6.019531 13.585938 -5.6875 14.890625 -5.6875 Z M 14.890625 -5.6875 "/></g></g></g><g fill="#1e1e1e" fill-opacity="1"><g transform="translate(145.935565, 36.0941)"><g><path d="M 12.546875 0.390625 C 10.191406 0.390625 8.15625 -0.0078125 6.4375 -0.8125 C 4.726562 -1.625 3.421875 -2.742188 2.515625 -4.171875 C 1.617188 -5.597656 1.171875 -7.195312 1.171875 -8.96875 L 7.453125 -8.96875 C 7.453125 -7.84375 7.894531 -6.914062 8.78125 -6.1875 C 9.664062 -5.457031 10.921875 -5.09375 12.546875 -5.09375 C 14.109375 -5.09375 15.28125 -5.363281 16.0625 -5.90625 C 16.851562 -6.457031 17.25 -7.164062 17.25 -8.03125 C 17.25 -8.757812 16.945312 -9.363281 16.34375 -9.84375 C 15.738281 -10.332031 14.734375 -10.707031 13.328125 -10.96875 L 9.015625 -11.75 C 6.554688 -12.195312 4.734375 -13.046875 3.546875 -14.296875 C 2.359375 -15.554688 1.765625 -17.253906 1.765625 -19.390625 C 1.765625 -20.984375 2.175781 -22.414062 3 -23.6875 C 3.820312 -24.957031 5.007812 -25.960938 6.5625 -26.703125 C 8.113281 -27.453125 9.972656 -27.828125 12.140625 -27.828125 C 14.492188 -27.828125 16.515625 -27.425781 18.203125 -26.625 C 19.890625 -25.832031 21.160156 -24.726562 22.015625 -23.3125 C 22.878906 -21.90625 23.3125 -20.273438 23.3125 -18.421875 L 17.046875 -18.421875 C 17.046875 -19.515625 16.597656 -20.441406 15.703125 -21.203125 C 14.816406 -21.960938 13.628906 -22.34375 12.140625 -22.34375 C 10.835938 -22.34375 9.828125 -22.0625 9.109375 -21.5 C 8.390625 -20.9375 8.03125 -20.234375 8.03125 -19.390625 C 8.03125 -18.691406 8.269531 -18.148438 8.75 -17.765625 C 9.238281 -17.390625 10.109375 -17.082031 11.359375 -16.84375 L 15.671875 -16.0625 C 18.421875 -15.570312 20.414062 -14.695312 21.65625 -13.4375 C 22.894531 -12.1875 23.515625 -10.382812 23.515625 -8.03125 C 23.515625 -6.4375 23.09375 -5 22.25 -3.71875 C 21.414062 -2.4375 20.175781 -1.429688 18.53125 -0.703125 C 16.882812 0.0234375 14.890625 0.390625 12.546875 0.390625 Z M 12.546875 0.390625 "/></g></g></g></g></g><g transform="matrix(1, 0, 0, 1, 100, 83)"><g clip-path="url(#b3efb70e4c)"><g fill="#1e1e1e" fill-opacity="1"><g transform="translate(5.483575, 270.164379)"><g><path d="M 0 -148.03125 C 0 -152.644531 1.726562 -156.679688 5.1875 -160.140625 C 8.644531 -163.597656 12.679688 -165.328125 17.296875 -165.328125 L 57.671875 -165.328125 C 61.515625 -165.328125 65.234375 -163.789062 68.828125 -160.71875 C 72.160156 -162 75.554688 -163.085938 79.015625 -163.984375 C 82.472656 -164.878906 86.125 -165.328125 89.96875 -165.328125 L 111.890625 -165.328125 C 122.398438 -165.328125 132.007812 -162.828125 140.71875 -157.828125 C 149.4375 -152.828125 156.359375 -146.226562 161.484375 -138.03125 L 171.859375 -128.03125 C 177.242188 -122.644531 181.472656 -116.425781 184.546875 -109.375 C 187.628906 -102.332031 189.171875 -94.710938 189.171875 -86.515625 L 189.171875 -28.84375 C 189.171875 -18.070312 186.601562 -8.265625 181.46875 0.578125 C 176.34375 9.421875 169.359375 16.46875 160.515625 21.71875 C 151.671875 26.976562 141.867188 29.609375 131.109375 29.609375 L 109.1875 29.609375 C 106.113281 29.609375 103.296875 29.476562 100.734375 29.21875 C 98.171875 28.96875 95.609375 28.457031 93.046875 27.6875 L 93.046875 71.125 C 93.046875 75.226562 91.441406 78.945312 88.234375 82.28125 C 85.035156 85.613281 81.253906 87.28125 76.890625 87.28125 L 36.53125 87.28125 C 32.425781 87.28125 28.707031 85.613281 25.375 82.28125 L 10.765625 67.671875 C 7.691406 66.390625 5.128906 64.273438 3.078125 61.328125 C 1.023438 58.378906 0 55.238281 0 51.90625 Z M 0 -148.03125 "/></g></g></g></g></g><g transform="matrix(1, 0, 0, 1, 56, 264)"><g clip-path="url(#a4afb01b52)"><g clip-path="url(#753f0e7037)"><g fill="#fe1817" fill-opacity="1"><g transform="translate(61.923228, 332.181121)"><g><path d="M 16.125 4.8125 L -31.703125 -26.578125 L -25.953125 -35.34375 L -22.140625 -33.796875 L -21.921875 -34.140625 C -22.523438 -35.765625 -22.644531 -37.691406 -22.28125 -39.921875 C -21.914062 -42.148438 -20.992188 -44.382812 -19.515625 -46.625 C -17.597656 -49.539062 -15.09375 -51.71875 -12 -53.15625 C -8.90625 -54.601562 -5.523438 -55.148438 -1.859375 -54.796875 C 1.796875 -54.453125 5.351562 -53.144531 8.8125 -50.875 C 12.257812 -48.613281 14.867188 -45.867188 16.640625 -42.640625 C 18.421875 -39.421875 19.269531 -36.101562 19.1875 -32.6875 C 19.101562 -29.269531 18.101562 -26.101562 16.1875 -23.1875 C 14.800781 -21.082031 13.210938 -19.445312 11.421875 -18.28125 C 9.628906 -17.113281 8.085938 -16.472656 6.796875 -16.359375 L 6.578125 -16.03125 L 22.796875 -5.375 Z M 5.640625 -27.53125 C 7.085938 -29.738281 7.503906 -32.066406 6.890625 -34.515625 C 6.285156 -36.960938 4.707031 -39.023438 2.15625 -40.703125 C -0.40625 -42.390625 -2.921875 -43.015625 -5.390625 -42.578125 C -7.867188 -42.148438 -9.832031 -40.832031 -11.28125 -38.625 C -12.726562 -36.425781 -13.15625 -34.109375 -12.5625 -31.671875 C -11.976562 -29.234375 -10.40625 -27.171875 -7.84375 -25.484375 C -5.289062 -23.804688 -2.765625 -23.175781 -0.265625 -23.59375 C 2.222656 -24.019531 4.191406 -25.332031 5.640625 -27.53125 Z M 5.640625 -27.53125 "/></g></g></g></g><g fill="#fe1817" fill-opacity="1"><g transform="translate(89.453664, 290.225749)"><g><path d="M 14.015625 -19.890625 C 11.773438 -16.472656 8.984375 -13.90625 5.640625 -12.1875 C 2.296875 -10.46875 -1.238281 -9.722656 -4.96875 -9.953125 C -8.707031 -10.179688 -12.257812 -11.398438 -15.625 -13.609375 C -19 -15.828125 -21.535156 -18.601562 -23.234375 -21.9375 C -24.941406 -25.269531 -25.671875 -28.8125 -25.421875 -32.5625 C -25.171875 -36.320312 -23.925781 -39.910156 -21.6875 -43.328125 C -19.445312 -46.734375 -16.65625 -49.296875 -13.3125 -51.015625 C -9.96875 -52.742188 -6.425781 -53.492188 -2.6875 -53.265625 C 1.050781 -53.035156 4.609375 -51.8125 7.984375 -49.59375 C 11.347656 -47.382812 13.878906 -44.613281 15.578125 -41.28125 C 17.273438 -37.945312 18 -34.398438 17.75 -30.640625 C 17.5 -26.878906 16.253906 -23.296875 14.015625 -19.890625 Z M 4.59375 -26.09375 C 6.039062 -28.289062 6.472656 -30.660156 5.890625 -33.203125 C 5.304688 -35.742188 3.78125 -37.820312 1.3125 -39.4375 C -1.164062 -41.0625 -3.6875 -41.632812 -6.25 -41.15625 C -8.8125 -40.675781 -10.816406 -39.335938 -12.265625 -37.140625 C -13.703125 -34.941406 -14.128906 -32.570312 -13.546875 -30.03125 C -12.960938 -27.5 -11.429688 -25.421875 -8.953125 -23.796875 C -6.484375 -22.179688 -3.96875 -21.609375 -1.40625 -22.078125 C 1.15625 -22.554688 3.15625 -23.894531 4.59375 -26.09375 Z M 4.59375 -26.09375 "/></g></g></g><g fill="#fe1817" fill-opacity="1"><g transform="translate(116.144481, 249.549926)"><g><path d="M 14.1875 -21.625 L 5.96875 -9.09375 L -34.140625 -22.890625 L -27.25 -33.390625 L -4.65625 -25.515625 L -3.765625 -26.859375 L -19.90625 -44.578125 L -13.234375 -54.75 L 9.453125 -47 L 10.328125 -48.34375 L -5.890625 -65.9375 L 1.015625 -76.453125 L 29.609375 -45.140625 L 21.390625 -32.609375 L -0.9375 -40.421875 L -1.828125 -39.078125 Z M 14.1875 -21.625 "/></g></g></g><g fill="#fe1817" fill-opacity="1"><g transform="translate(151.717511, 195.337936)"><g><path d="M 14.0625 -19.96875 C 11.820312 -16.550781 9.03125 -13.976562 5.6875 -12.25 C 2.34375 -10.53125 -1.203125 -9.773438 -4.953125 -9.984375 C -8.703125 -10.191406 -12.257812 -11.398438 -15.625 -13.609375 C -19 -15.828125 -21.53125 -18.613281 -23.21875 -21.96875 C -24.90625 -25.320312 -25.625 -28.878906 -25.375 -32.640625 C -25.125 -36.398438 -23.878906 -39.988281 -21.640625 -43.40625 C -19.515625 -46.632812 -16.8125 -49.082031 -13.53125 -50.75 C -10.25 -52.425781 -6.769531 -53.148438 -3.09375 -52.921875 C 0.570312 -52.691406 4.023438 -51.515625 7.265625 -49.390625 C 8.472656 -48.597656 9.519531 -47.75 10.40625 -46.84375 L -6.046875 -21.796875 C -3.984375 -20.828125 -1.828125 -20.660156 0.421875 -21.296875 C 2.679688 -21.941406 4.488281 -23.300781 5.84375 -25.375 C 6.84375 -26.894531 7.40625 -28.382812 7.53125 -29.84375 C 7.65625 -31.3125 7.582031 -32.515625 7.3125 -33.453125 L 14.03125 -43.703125 C 15.257812 -42.253906 16.257812 -40.3125 17.03125 -37.875 C 17.8125 -35.4375 18.035156 -32.640625 17.703125 -29.484375 C 17.367188 -26.328125 16.15625 -23.15625 14.0625 -19.96875 Z M -2.078125 -41.171875 C -4.140625 -42.140625 -6.242188 -42.363281 -8.390625 -41.84375 C -10.546875 -41.320312 -12.269531 -40.078125 -13.5625 -38.109375 C -14.945312 -35.992188 -15.460938 -33.820312 -15.109375 -31.59375 C -14.765625 -29.375 -13.785156 -27.445312 -12.171875 -25.8125 Z M -2.078125 -41.171875 "/></g></g></g><g fill="#fe1817" fill-opacity="1"><g transform="translate(178.098969, 155.133565)"><g><path d="M 2.65625 -4.03125 L -31.703125 -26.578125 L -25.953125 -35.34375 L -22.828125 -34.25 L -22.609375 -34.59375 C -22.992188 -35.550781 -23.101562 -36.742188 -22.9375 -38.171875 C -22.769531 -39.609375 -22.234375 -41.023438 -21.328125 -42.421875 L -17.03125 -48.96875 L -7.40625 -42.65625 L -11.390625 -36.578125 C -14.066406 -32.492188 -13.3125 -29.078125 -9.125 -26.328125 L 9.328125 -14.21875 Z M 2.65625 -4.03125 "/></g></g></g><g fill="#fe1817" fill-opacity="1"><g transform="translate(196.040112, 127.791922)"><g><path d="M 14.0625 -19.96875 C 11.820312 -16.550781 9.03125 -13.976562 5.6875 -12.25 C 2.34375 -10.53125 -1.203125 -9.773438 -4.953125 -9.984375 C -8.703125 -10.191406 -12.257812 -11.398438 -15.625 -13.609375 C -19 -15.828125 -21.53125 -18.613281 -23.21875 -21.96875 C -24.90625 -25.320312 -25.625 -28.878906 -25.375 -32.640625 C -25.125 -36.398438 -23.878906 -39.988281 -21.640625 -43.40625 C -19.515625 -46.632812 -16.8125 -49.082031 -13.53125 -50.75 C -10.25 -52.425781 -6.769531 -53.148438 -3.09375 -52.921875 C 0.570312 -52.691406 4.023438 -51.515625 7.265625 -49.390625 C 8.472656 -48.597656 9.519531 -47.75 10.40625 -46.84375 L -6.046875 -21.796875 C -3.984375 -20.828125 -1.828125 -20.660156 0.421875 -21.296875 C 2.679688 -21.941406 4.488281 -23.300781 5.84375 -25.375 C 6.84375 -26.894531 7.40625 -28.382812 7.53125 -29.84375 C 7.65625 -31.3125 7.582031 -32.515625 7.3125 -33.453125 L 14.03125 -43.703125 C 15.257812 -42.253906 16.257812 -40.3125 17.03125 -37.875 C 17.8125 -35.4375 18.035156 -32.640625 17.703125 -29.484375 C 17.367188 -26.328125 16.15625 -23.15625 14.0625 -19.96875 Z M -2.078125 -41.171875 C -4.140625 -42.140625 -6.242188 -42.363281 -8.390625 -41.84375 C -10.546875 -41.320312 -12.269531 -40.078125 -13.5625 -38.109375 C -14.945312 -35.992188 -15.460938 -33.820312 -15.109375 -31.59375 C -14.765625 -29.375 -13.785156 -27.445312 -12.171875 -25.8125 Z M -2.078125 -41.171875 "/></g></g></g><g fill="#fe1817" fill-opacity="1"><g transform="translate(222.42157, 87.587551)"><g><path d="M 12.703125 -17.875 C 10.773438 -14.945312 8.265625 -12.765625 5.171875 -11.328125 C 2.078125 -9.898438 -1.296875 -9.359375 -4.953125 -9.703125 C -8.617188 -10.046875 -12.175781 -11.347656 -15.625 -13.609375 C -19.082031 -15.878906 -21.695312 -18.628906 -23.46875 -21.859375 C -25.25 -25.085938 -26.097656 -28.40625 -26.015625 -31.8125 C -25.929688 -35.21875 -24.925781 -38.382812 -23 -41.3125 C -21.625 -43.414062 -20.015625 -45.039062 -18.171875 -46.1875 C -16.328125 -47.332031 -14.722656 -47.960938 -13.359375 -48.078125 L -13.125 -48.421875 L -28.890625 -58.765625 L -22.21875 -68.9375 L 24.9375 -38 L 19.1875 -29.234375 L 15.375 -30.78125 L 15.15625 -30.453125 C 15.726562 -28.785156 15.84375 -26.851562 15.5 -24.65625 C 15.164062 -22.46875 14.234375 -20.207031 12.703125 -17.875 Z M 4.578125 -25.90625 C 6.023438 -28.113281 6.441406 -30.441406 5.828125 -32.890625 C 5.222656 -35.347656 3.644531 -37.414062 1.09375 -39.09375 C -1.46875 -40.78125 -3.984375 -41.40625 -6.453125 -40.96875 C -8.929688 -40.53125 -10.894531 -39.207031 -12.34375 -37 C -13.789062 -34.800781 -14.21875 -32.484375 -13.625 -30.046875 C -13.039062 -27.609375 -11.46875 -25.546875 -8.90625 -23.859375 C -6.351562 -22.179688 -3.828125 -21.550781 -1.328125 -21.96875 C 1.160156 -22.394531 3.128906 -23.707031 4.578125 -25.90625 Z M 4.578125 -25.90625 "/></g></g></g></g></g><g transform="matrix(1, 0, 0, 1, 49, 162)"><g clip-path="url(#67de750c24)"><g fill="#fe1817" fill-opacity="1"><g transform="translate(62.559299, 332.945336)"><g><path d="M 16.125 4.8125 L -31.703125 -26.578125 L -25.953125 -35.34375 L -22.140625 -33.796875 L -21.921875 -34.140625 C -22.523438 -35.765625 -22.644531 -37.691406 -22.28125 -39.921875 C -21.914062 -42.148438 -20.992188 -44.382812 -19.515625 -46.625 C -17.597656 -49.539062 -15.09375 -51.71875 -12 -53.15625 C -8.90625 -54.601562 -5.523438 -55.148438 -1.859375 -54.796875 C 1.796875 -54.453125 5.351562 -53.144531 8.8125 -50.875 C 12.257812 -48.613281 14.867188 -45.867188 16.640625 -42.640625 C 18.421875 -39.421875 19.269531 -36.101562 19.1875 -32.6875 C 19.101562 -29.269531 18.101562 -26.101562 16.1875 -23.1875 C 14.800781 -21.082031 13.210938 -19.445312 11.421875 -18.28125 C 9.628906 -17.113281 8.085938 -16.472656 6.796875 -16.359375 L 6.578125 -16.03125 L 22.796875 -5.375 Z M 5.640625 -27.53125 C 7.085938 -29.738281 7.503906 -32.066406 6.890625 -34.515625 C 6.285156 -36.960938 4.707031 -39.023438 2.15625 -40.703125 C -0.40625 -42.390625 -2.921875 -43.015625 -5.390625 -42.578125 C -7.867188 -42.148438 -9.832031 -40.832031 -11.28125 -38.625 C -12.726562 -36.425781 -13.15625 -34.109375 -12.5625 -31.671875 C -11.976562 -29.234375 -10.40625 -27.171875 -7.84375 -25.484375 C -5.289062 -23.804688 -2.765625 -23.175781 -0.265625 -23.59375 C 2.222656 -24.019531 4.191406 -25.332031 5.640625 -27.53125 Z M 5.640625 -27.53125 "/></g></g></g><g fill="#fe1817" fill-opacity="1"><g transform="translate(90.089735, 290.989964)"><g><path d="M 14.015625 -19.890625 C 11.773438 -16.472656 8.984375 -13.90625 5.640625 -12.1875 C 2.296875 -10.46875 -1.238281 -9.722656 -4.96875 -9.953125 C -8.707031 -10.179688 -12.257812 -11.398438 -15.625 -13.609375 C -19 -15.828125 -21.535156 -18.601562 -23.234375 -21.9375 C -24.941406 -25.269531 -25.671875 -28.8125 -25.421875 -32.5625 C -25.171875 -36.320312 -23.925781 -39.910156 -21.6875 -43.328125 C -19.445312 -46.734375 -16.65625 -49.296875 -13.3125 -51.015625 C -9.96875 -52.742188 -6.425781 -53.492188 -2.6875 -53.265625 C 1.050781 -53.035156 4.609375 -51.8125 7.984375 -49.59375 C 11.347656 -47.382812 13.878906 -44.613281 15.578125 -41.28125 C 17.273438 -37.945312 18 -34.398438 17.75 -30.640625 C 17.5 -26.878906 16.253906 -23.296875 14.015625 -19.890625 Z M 4.59375 -26.09375 C 6.039062 -28.289062 6.472656 -30.660156 5.890625 -33.203125 C 5.304688 -35.742188 3.78125 -37.820312 1.3125 -39.4375 C -1.164062 -41.0625 -3.6875 -41.632812 -6.25 -41.15625 C -8.8125 -40.675781 -10.816406 -39.335938 -12.265625 -37.140625 C -13.703125 -34.941406 -14.128906 -32.570312 -13.546875 -30.03125 C -12.960938 -27.5 -11.429688 -25.421875 -8.953125 -23.796875 C -6.484375 -22.179688 -3.96875 -21.609375 -1.40625 -22.078125 C 1.15625 -22.554688 3.15625 -23.894531 4.59375 -26.09375 Z M 4.59375 -26.09375 "/></g></g></g><g fill="#fe1817" fill-opacity="1"><g transform="translate(116.780552, 250.31414)"><g><path d="M 14.1875 -21.625 L 5.96875 -9.09375 L -34.140625 -22.890625 L -27.25 -33.390625 L -4.65625 -25.515625 L -3.765625 -26.859375 L -19.90625 -44.578125 L -13.234375 -54.75 L 9.453125 -47 L 10.328125 -48.34375 L -5.890625 -65.9375 L 1.015625 -76.453125 L 29.609375 -45.140625 L 21.390625 -32.609375 L -0.9375 -40.421875 L -1.828125 -39.078125 Z M 14.1875 -21.625 "/></g></g></g><g fill="#fe1817" fill-opacity="1"><g transform="translate(152.353582, 196.102151)"><g><path d="M 14.0625 -19.96875 C 11.820312 -16.550781 9.03125 -13.976562 5.6875 -12.25 C 2.34375 -10.53125 -1.203125 -9.773438 -4.953125 -9.984375 C -8.703125 -10.191406 -12.257812 -11.398438 -15.625 -13.609375 C -19 -15.828125 -21.53125 -18.613281 -23.21875 -21.96875 C -24.90625 -25.320312 -25.625 -28.878906 -25.375 -32.640625 C -25.125 -36.398438 -23.878906 -39.988281 -21.640625 -43.40625 C -19.515625 -46.632812 -16.8125 -49.082031 -13.53125 -50.75 C -10.25 -52.425781 -6.769531 -53.148438 -3.09375 -52.921875 C 0.570312 -52.691406 4.023438 -51.515625 7.265625 -49.390625 C 8.472656 -48.597656 9.519531 -47.75 10.40625 -46.84375 L -6.046875 -21.796875 C -3.984375 -20.828125 -1.828125 -20.660156 0.421875 -21.296875 C 2.679688 -21.941406 4.488281 -23.300781 5.84375 -25.375 C 6.84375 -26.894531 7.40625 -28.382812 7.53125 -29.84375 C 7.65625 -31.3125 7.582031 -32.515625 7.3125 -33.453125 L 14.03125 -43.703125 C 15.257812 -42.253906 16.257812 -40.3125 17.03125 -37.875 C 17.8125 -35.4375 18.035156 -32.640625 17.703125 -29.484375 C 17.367188 -26.328125 16.15625 -23.15625 14.0625 -19.96875 Z M -2.078125 -41.171875 C -4.140625 -42.140625 -6.242188 -42.363281 -8.390625 -41.84375 C -10.546875 -41.320312 -12.269531 -40.078125 -13.5625 -38.109375 C -14.945312 -35.992188 -15.460938 -33.820312 -15.109375 -31.59375 C -14.765625 -29.375 -13.785156 -27.445312 -12.171875 -25.8125 Z M -2.078125 -41.171875 "/></g></g></g><g fill="#fe1817" fill-opacity="1"><g transform="translate(178.735039, 155.89778)"><g><path d="M 2.65625 -4.03125 L -31.703125 -26.578125 L -25.953125 -35.34375 L -22.828125 -34.25 L -22.609375 -34.59375 C -22.992188 -35.550781 -23.101562 -36.742188 -22.9375 -38.171875 C -22.769531 -39.609375 -22.234375 -41.023438 -21.328125 -42.421875 L -17.03125 -48.96875 L -7.40625 -42.65625 L -11.390625 -36.578125 C -14.066406 -32.492188 -13.3125 -29.078125 -9.125 -26.328125 L 9.328125 -14.21875 Z M 2.65625 -4.03125 "/></g></g></g><g fill="#fe1817" fill-opacity="1"><g transform="translate(196.676183, 128.556137)"><g><path d="M 14.0625 -19.96875 C 11.820312 -16.550781 9.03125 -13.976562 5.6875 -12.25 C 2.34375 -10.53125 -1.203125 -9.773438 -4.953125 -9.984375 C -8.703125 -10.191406 -12.257812 -11.398438 -15.625 -13.609375 C -19 -15.828125 -21.53125 -18.613281 -23.21875 -21.96875 C -24.90625 -25.320312 -25.625 -28.878906 -25.375 -32.640625 C -25.125 -36.398438 -23.878906 -39.988281 -21.640625 -43.40625 C -19.515625 -46.632812 -16.8125 -49.082031 -13.53125 -50.75 C -10.25 -52.425781 -6.769531 -53.148438 -3.09375 -52.921875 C 0.570312 -52.691406 4.023438 -51.515625 7.265625 -49.390625 C 8.472656 -48.597656 9.519531 -47.75 10.40625 -46.84375 L -6.046875 -21.796875 C -3.984375 -20.828125 -1.828125 -20.660156 0.421875 -21.296875 C 2.679688 -21.941406 4.488281 -23.300781 5.84375 -25.375 C 6.84375 -26.894531 7.40625 -28.382812 7.53125 -29.84375 C 7.65625 -31.3125 7.582031 -32.515625 7.3125 -33.453125 L 14.03125 -43.703125 C 15.257812 -42.253906 16.257812 -40.3125 17.03125 -37.875 C 17.8125 -35.4375 18.035156 -32.640625 17.703125 -29.484375 C 17.367188 -26.328125 16.15625 -23.15625 14.0625 -19.96875 Z M -2.078125 -41.171875 C -4.140625 -42.140625 -6.242188 -42.363281 -8.390625 -41.84375 C -10.546875 -41.320312 -12.269531 -40.078125 -13.5625 -38.109375 C -14.945312 -35.992188 -15.460938 -33.820312 -15.109375 -31.59375 C -14.765625 -29.375 -13.785156 -27.445312 -12.171875 -25.8125 Z M -2.078125 -41.171875 "/></g></g></g><g fill="#fe1817" fill-opacity="1"><g transform="translate(223.05764, 88.351766)"><g><path d="M 12.703125 -17.875 C 10.773438 -14.945312 8.265625 -12.765625 5.171875 -11.328125 C 2.078125 -9.898438 -1.296875 -9.359375 -4.953125 -9.703125 C -8.617188 -10.046875 -12.175781 -11.347656 -15.625 -13.609375 C -19.082031 -15.878906 -21.695312 -18.628906 -23.46875 -21.859375 C -25.25 -25.085938 -26.097656 -28.40625 -26.015625 -31.8125 C -25.929688 -35.21875 -24.925781 -38.382812 -23 -41.3125 C -21.625 -43.414062 -20.015625 -45.039062 -18.171875 -46.1875 C -16.328125 -47.332031 -14.722656 -47.960938 -13.359375 -48.078125 L -13.125 -48.421875 L -28.890625 -58.765625 L -22.21875 -68.9375 L 24.9375 -38 L 19.1875 -29.234375 L 15.375 -30.78125 L 15.15625 -30.453125 C 15.726562 -28.785156 15.84375 -26.851562 15.5 -24.65625 C 15.164062 -22.46875 14.234375 -20.207031 12.703125 -17.875 Z M 4.578125 -25.90625 C 6.023438 -28.113281 6.441406 -30.441406 5.828125 -32.890625 C 5.222656 -35.347656 3.644531 -37.414062 1.09375 -39.09375 C -1.46875 -40.78125 -3.984375 -41.40625 -6.453125 -40.96875 C -8.929688 -40.53125 -10.894531 -39.207031 -12.34375 -37 C -13.789062 -34.800781 -14.21875 -32.484375 -13.625 -30.046875 C -13.039062 -27.609375 -11.46875 -25.546875 -8.90625 -23.859375 C -6.351562 -22.179688 -3.828125 -21.550781 -1.328125 -21.96875 C 1.160156 -22.394531 3.128906 -23.707031 4.578125 -25.90625 Z M 4.578125 -25.90625 "/></g></g></g></g></g><g transform="matrix(1, 0, 0, 1, 46, 62)"><g clip-path="url(#2964d42c15)"><g fill="#fe1817" fill-opacity="1"><g transform="translate(62.121729, 332.49154)"><g><path d="M 16.125 4.8125 L -31.703125 -26.578125 L -25.953125 -35.34375 L -22.140625 -33.796875 L -21.921875 -34.140625 C -22.523438 -35.765625 -22.644531 -37.691406 -22.28125 -39.921875 C -21.914062 -42.148438 -20.992188 -44.382812 -19.515625 -46.625 C -17.597656 -49.539062 -15.09375 -51.71875 -12 -53.15625 C -8.90625 -54.601562 -5.523438 -55.148438 -1.859375 -54.796875 C 1.796875 -54.453125 5.351562 -53.144531 8.8125 -50.875 C 12.257812 -48.613281 14.867188 -45.867188 16.640625 -42.640625 C 18.421875 -39.421875 19.269531 -36.101562 19.1875 -32.6875 C 19.101562 -29.269531 18.101562 -26.101562 16.1875 -23.1875 C 14.800781 -21.082031 13.210938 -19.445312 11.421875 -18.28125 C 9.628906 -17.113281 8.085938 -16.472656 6.796875 -16.359375 L 6.578125 -16.03125 L 22.796875 -5.375 Z M 5.640625 -27.53125 C 7.085938 -29.738281 7.503906 -32.066406 6.890625 -34.515625 C 6.285156 -36.960938 4.707031 -39.023438 2.15625 -40.703125 C -0.40625 -42.390625 -2.921875 -43.015625 -5.390625 -42.578125 C -7.867188 -42.148438 -9.832031 -40.832031 -11.28125 -38.625 C -12.726562 -36.425781 -13.15625 -34.109375 -12.5625 -31.671875 C -11.976562 -29.234375 -10.40625 -27.171875 -7.84375 -25.484375 C -5.289062 -23.804688 -2.765625 -23.175781 -0.265625 -23.59375 C 2.222656 -24.019531 4.191406 -25.332031 5.640625 -27.53125 Z M 5.640625 -27.53125 "/></g></g></g><g fill="#fe1817" fill-opacity="1"><g transform="translate(89.652164, 290.536168)"><g><path d="M 14.015625 -19.890625 C 11.773438 -16.472656 8.984375 -13.90625 5.640625 -12.1875 C 2.296875 -10.46875 -1.238281 -9.722656 -4.96875 -9.953125 C -8.707031 -10.179688 -12.257812 -11.398438 -15.625 -13.609375 C -19 -15.828125 -21.535156 -18.601562 -23.234375 -21.9375 C -24.941406 -25.269531 -25.671875 -28.8125 -25.421875 -32.5625 C -25.171875 -36.320312 -23.925781 -39.910156 -21.6875 -43.328125 C -19.445312 -46.734375 -16.65625 -49.296875 -13.3125 -51.015625 C -9.96875 -52.742188 -6.425781 -53.492188 -2.6875 -53.265625 C 1.050781 -53.035156 4.609375 -51.8125 7.984375 -49.59375 C 11.347656 -47.382812 13.878906 -44.613281 15.578125 -41.28125 C 17.273438 -37.945312 18 -34.398438 17.75 -30.640625 C 17.5 -26.878906 16.253906 -23.296875 14.015625 -19.890625 Z M 4.59375 -26.09375 C 6.039062 -28.289062 6.472656 -30.660156 5.890625 -33.203125 C 5.304688 -35.742188 3.78125 -37.820312 1.3125 -39.4375 C -1.164062 -41.0625 -3.6875 -41.632812 -6.25 -41.15625 C -8.8125 -40.675781 -10.816406 -39.335938 -12.265625 -37.140625 C -13.703125 -34.941406 -14.128906 -32.570312 -13.546875 -30.03125 C -12.960938 -27.5 -11.429688 -25.421875 -8.953125 -23.796875 C -6.484375 -22.179688 -3.96875 -21.609375 -1.40625 -22.078125 C 1.15625 -22.554688 3.15625 -23.894531 4.59375 -26.09375 Z M 4.59375 -26.09375 "/></g></g></g><g fill="#fe1817" fill-opacity="1"><g transform="translate(116.342982, 249.860345)"><g><path d="M 14.1875 -21.625 L 5.96875 -9.09375 L -34.140625 -22.890625 L -27.25 -33.390625 L -4.65625 -25.515625 L -3.765625 -26.859375 L -19.90625 -44.578125 L -13.234375 -54.75 L 9.453125 -47 L 10.328125 -48.34375 L -5.890625 -65.9375 L 1.015625 -76.453125 L 29.609375 -45.140625 L 21.390625 -32.609375 L -0.9375 -40.421875 L -1.828125 -39.078125 Z M 14.1875 -21.625 "/></g></g></g><g fill="#fe1817" fill-opacity="1"><g transform="translate(151.916012, 195.648355)"><g><path d="M 14.0625 -19.96875 C 11.820312 -16.550781 9.03125 -13.976562 5.6875 -12.25 C 2.34375 -10.53125 -1.203125 -9.773438 -4.953125 -9.984375 C -8.703125 -10.191406 -12.257812 -11.398438 -15.625 -13.609375 C -19 -15.828125 -21.53125 -18.613281 -23.21875 -21.96875 C -24.90625 -25.320312 -25.625 -28.878906 -25.375 -32.640625 C -25.125 -36.398438 -23.878906 -39.988281 -21.640625 -43.40625 C -19.515625 -46.632812 -16.8125 -49.082031 -13.53125 -50.75 C -10.25 -52.425781 -6.769531 -53.148438 -3.09375 -52.921875 C 0.570312 -52.691406 4.023438 -51.515625 7.265625 -49.390625 C 8.472656 -48.597656 9.519531 -47.75 10.40625 -46.84375 L -6.046875 -21.796875 C -3.984375 -20.828125 -1.828125 -20.660156 0.421875 -21.296875 C 2.679688 -21.941406 4.488281 -23.300781 5.84375 -25.375 C 6.84375 -26.894531 7.40625 -28.382812 7.53125 -29.84375 C 7.65625 -31.3125 7.582031 -32.515625 7.3125 -33.453125 L 14.03125 -43.703125 C 15.257812 -42.253906 16.257812 -40.3125 17.03125 -37.875 C 17.8125 -35.4375 18.035156 -32.640625 17.703125 -29.484375 C 17.367188 -26.328125 16.15625 -23.15625 14.0625 -19.96875 Z M -2.078125 -41.171875 C -4.140625 -42.140625 -6.242188 -42.363281 -8.390625 -41.84375 C -10.546875 -41.320312 -12.269531 -40.078125 -13.5625 -38.109375 C -14.945312 -35.992188 -15.460938 -33.820312 -15.109375 -31.59375 C -14.765625 -29.375 -13.785156 -27.445312 -12.171875 -25.8125 Z M -2.078125 -41.171875 "/></g></g></g><g fill="#fe1817" fill-opacity="1"><g transform="translate(178.297469, 155.443984)"><g><path d="M 2.65625 -4.03125 L -31.703125 -26.578125 L -25.953125 -35.34375 L -22.828125 -34.25 L -22.609375 -34.59375 C -22.992188 -35.550781 -23.101562 -36.742188 -22.9375 -38.171875 C -22.769531 -39.609375 -22.234375 -41.023438 -21.328125 -42.421875 L -17.03125 -48.96875 L -7.40625 -42.65625 L -11.390625 -36.578125 C -14.066406 -32.492188 -13.3125 -29.078125 -9.125 -26.328125 L 9.328125 -14.21875 Z M 2.65625 -4.03125 "/></g></g></g><g fill="#fe1817" fill-opacity="1"><g transform="translate(196.238613, 128.102341)"><g><path d="M 14.0625 -19.96875 C 11.820312 -16.550781 9.03125 -13.976562 5.6875 -12.25 C 2.34375 -10.53125 -1.203125 -9.773438 -4.953125 -9.984375 C -8.703125 -10.191406 -12.257812 -11.398438 -15.625 -13.609375 C -19 -15.828125 -21.53125 -18.613281 -23.21875 -21.96875 C -24.90625 -25.320312 -25.625 -28.878906 -25.375 -32.640625 C -25.125 -36.398438 -23.878906 -39.988281 -21.640625 -43.40625 C -19.515625 -46.632812 -16.8125 -49.082031 -13.53125 -50.75 C -10.25 -52.425781 -6.769531 -53.148438 -3.09375 -52.921875 C 0.570312 -52.691406 4.023438 -51.515625 7.265625 -49.390625 C 8.472656 -48.597656 9.519531 -47.75 10.40625 -46.84375 L -6.046875 -21.796875 C -3.984375 -20.828125 -1.828125 -20.660156 0.421875 -21.296875 C 2.679688 -21.941406 4.488281 -23.300781 5.84375 -25.375 C 6.84375 -26.894531 7.40625 -28.382812 7.53125 -29.84375 C 7.65625 -31.3125 7.582031 -32.515625 7.3125 -33.453125 L 14.03125 -43.703125 C 15.257812 -42.253906 16.257812 -40.3125 17.03125 -37.875 C 17.8125 -35.4375 18.035156 -32.640625 17.703125 -29.484375 C 17.367188 -26.328125 16.15625 -23.15625 14.0625 -19.96875 Z M -2.078125 -41.171875 C -4.140625 -42.140625 -6.242188 -42.363281 -8.390625 -41.84375 C -10.546875 -41.320312 -12.269531 -40.078125 -13.5625 -38.109375 C -14.945312 -35.992188 -15.460938 -33.820312 -15.109375 -31.59375 C -14.765625 -29.375 -13.785156 -27.445312 -12.171875 -25.8125 Z M -2.078125 -41.171875 "/></g></g></g><g fill="#fe1817" fill-opacity="1"><g transform="translate(222.62007, 87.89797)"><g><path d="M 12.703125 -17.875 C 10.773438 -14.945312 8.265625 -12.765625 5.171875 -11.328125 C 2.078125 -9.898438 -1.296875 -9.359375 -4.953125 -9.703125 C -8.617188 -10.046875 -12.175781 -11.347656 -15.625 -13.609375 C -19.082031 -15.878906 -21.695312 -18.628906 -23.46875 -21.859375 C -25.25 -25.085938 -26.097656 -28.40625 -26.015625 -31.8125 C -25.929688 -35.21875 -24.925781 -38.382812 -23 -41.3125 C -21.625 -43.414062 -20.015625 -45.039062 -18.171875 -46.1875 C -16.328125 -47.332031 -14.722656 -47.960938 -13.359375 -48.078125 L -13.125 -48.421875 L -28.890625 -58.765625 L -22.21875 -68.9375 L 24.9375 -38 L 19.1875 -29.234375 L 15.375 -30.78125 L 15.15625 -30.453125 C 15.726562 -28.785156 15.84375 -26.851562 15.5 -24.65625 C 15.164062 -22.46875 14.234375 -20.207031 12.703125 -17.875 Z M 4.578125 -25.90625 C 6.023438 -28.113281 6.441406 -30.441406 5.828125 -32.890625 C 5.222656 -35.347656 3.644531 -37.414062 1.09375 -39.09375 C -1.46875 -40.78125 -3.984375 -41.40625 -6.453125 -40.96875 C -8.929688 -40.53125 -10.894531 -39.207031 -12.34375 -37 C -13.789062 -34.800781 -14.21875 -32.484375 -13.625 -30.046875 C -13.039062 -27.609375 -11.46875 -25.546875 -8.90625 -23.859375 C -6.351562 -22.179688 -3.828125 -21.550781 -1.328125 -21.96875 C 1.160156 -22.394531 3.128906 -23.707031 4.578125 -25.90625 Z M 4.578125 -25.90625 "/></g></g></g></g></g><g transform="matrix(1, 0, 0, 1, 43, -0.000000000000034788)"><g clip-path="url(#fc1e033fc0)"><g fill="#fe1817" fill-opacity="1"><g transform="translate(61.684151, 294.037716)"><g><path d="M 16.125 4.8125 L -31.703125 -26.578125 L -25.953125 -35.34375 L -22.140625 -33.796875 L -21.921875 -34.140625 C -22.523438 -35.765625 -22.644531 -37.691406 -22.28125 -39.921875 C -21.914062 -42.148438 -20.992188 -44.382812 -19.515625 -46.625 C -17.597656 -49.539062 -15.09375 -51.71875 -12 -53.15625 C -8.90625 -54.601562 -5.523438 -55.148438 -1.859375 -54.796875 C 1.796875 -54.453125 5.351562 -53.144531 8.8125 -50.875 C 12.257812 -48.613281 14.867188 -45.867188 16.640625 -42.640625 C 18.421875 -39.421875 19.269531 -36.101562 19.1875 -32.6875 C 19.101562 -29.269531 18.101562 -26.101562 16.1875 -23.1875 C 14.800781 -21.082031 13.210938 -19.445312 11.421875 -18.28125 C 9.628906 -17.113281 8.085938 -16.472656 6.796875 -16.359375 L 6.578125 -16.03125 L 22.796875 -5.375 Z M 5.640625 -27.53125 C 7.085938 -29.738281 7.503906 -32.066406 6.890625 -34.515625 C 6.285156 -36.960938 4.707031 -39.023438 2.15625 -40.703125 C -0.40625 -42.390625 -2.921875 -43.015625 -5.390625 -42.578125 C -7.867188 -42.148438 -9.832031 -40.832031 -11.28125 -38.625 C -12.726562 -36.425781 -13.15625 -34.109375 -12.5625 -31.671875 C -11.976562 -29.234375 -10.40625 -27.171875 -7.84375 -25.484375 C -5.289062 -23.804688 -2.765625 -23.175781 -0.265625 -23.59375 C 2.222656 -24.019531 4.191406 -25.332031 5.640625 -27.53125 Z M 5.640625 -27.53125 "/></g></g></g><g fill="#fe1817" fill-opacity="1"><g transform="translate(89.214587, 252.082344)"><g><path d="M 14.015625 -19.890625 C 11.773438 -16.472656 8.984375 -13.90625 5.640625 -12.1875 C 2.296875 -10.46875 -1.238281 -9.722656 -4.96875 -9.953125 C -8.707031 -10.179688 -12.257812 -11.398438 -15.625 -13.609375 C -19 -15.828125 -21.535156 -18.601562 -23.234375 -21.9375 C -24.941406 -25.269531 -25.671875 -28.8125 -25.421875 -32.5625 C -25.171875 -36.320312 -23.925781 -39.910156 -21.6875 -43.328125 C -19.445312 -46.734375 -16.65625 -49.296875 -13.3125 -51.015625 C -9.96875 -52.742188 -6.425781 -53.492188 -2.6875 -53.265625 C 1.050781 -53.035156 4.609375 -51.8125 7.984375 -49.59375 C 11.347656 -47.382812 13.878906 -44.613281 15.578125 -41.28125 C 17.273438 -37.945312 18 -34.398438 17.75 -30.640625 C 17.5 -26.878906 16.253906 -23.296875 14.015625 -19.890625 Z M 4.59375 -26.09375 C 6.039062 -28.289062 6.472656 -30.660156 5.890625 -33.203125 C 5.304688 -35.742188 3.78125 -37.820312 1.3125 -39.4375 C -1.164062 -41.0625 -3.6875 -41.632812 -6.25 -41.15625 C -8.8125 -40.675781 -10.816406 -39.335938 -12.265625 -37.140625 C -13.703125 -34.941406 -14.128906 -32.570312 -13.546875 -30.03125 C -12.960938 -27.5 -11.429688 -25.421875 -8.953125 -23.796875 C -6.484375 -22.179688 -3.96875 -21.609375 -1.40625 -22.078125 C 1.15625 -22.554688 3.15625 -23.894531 4.59375 -26.09375 Z M 4.59375 -26.09375 "/></g></g></g><g fill="#fe1817" fill-opacity="1"><g transform="translate(115.905404, 211.40652)"><g><path d="M 14.1875 -21.625 L 5.96875 -9.09375 L -34.140625 -22.890625 L -27.25 -33.390625 L -4.65625 -25.515625 L -3.765625 -26.859375 L -19.90625 -44.578125 L -13.234375 -54.75 L 9.453125 -47 L 10.328125 -48.34375 L -5.890625 -65.9375 L 1.015625 -76.453125 L 29.609375 -45.140625 L 21.390625 -32.609375 L -0.9375 -40.421875 L -1.828125 -39.078125 Z M 14.1875 -21.625 "/></g></g></g><g fill="#fe1817" fill-opacity="1"><g transform="translate(151.478434, 157.19453)"><g><path d="M 14.0625 -19.96875 C 11.820312 -16.550781 9.03125 -13.976562 5.6875 -12.25 C 2.34375 -10.53125 -1.203125 -9.773438 -4.953125 -9.984375 C -8.703125 -10.191406 -12.257812 -11.398438 -15.625 -13.609375 C -19 -15.828125 -21.53125 -18.613281 -23.21875 -21.96875 C -24.90625 -25.320312 -25.625 -28.878906 -25.375 -32.640625 C -25.125 -36.398438 -23.878906 -39.988281 -21.640625 -43.40625 C -19.515625 -46.632812 -16.8125 -49.082031 -13.53125 -50.75 C -10.25 -52.425781 -6.769531 -53.148438 -3.09375 -52.921875 C 0.570312 -52.691406 4.023438 -51.515625 7.265625 -49.390625 C 8.472656 -48.597656 9.519531 -47.75 10.40625 -46.84375 L -6.046875 -21.796875 C -3.984375 -20.828125 -1.828125 -20.660156 0.421875 -21.296875 C 2.679688 -21.941406 4.488281 -23.300781 5.84375 -25.375 C 6.84375 -26.894531 7.40625 -28.382812 7.53125 -29.84375 C 7.65625 -31.3125 7.582031 -32.515625 7.3125 -33.453125 L 14.03125 -43.703125 C 15.257812 -42.253906 16.257812 -40.3125 17.03125 -37.875 C 17.8125 -35.4375 18.035156 -32.640625 17.703125 -29.484375 C 17.367188 -26.328125 16.15625 -23.15625 14.0625 -19.96875 Z M -2.078125 -41.171875 C -4.140625 -42.140625 -6.242188 -42.363281 -8.390625 -41.84375 C -10.546875 -41.320312 -12.269531 -40.078125 -13.5625 -38.109375 C -14.945312 -35.992188 -15.460938 -33.820312 -15.109375 -31.59375 C -14.765625 -29.375 -13.785156 -27.445312 -12.171875 -25.8125 Z M -2.078125 -41.171875 "/></g></g></g><g fill="#fe1817" fill-opacity="1"><g transform="translate(177.859891, 116.990159)"><g><path d="M 2.65625 -4.03125 L -31.703125 -26.578125 L -25.953125 -35.34375 L -22.828125 -34.25 L -22.609375 -34.59375 C -22.992188 -35.550781 -23.101562 -36.742188 -22.9375 -38.171875 C -22.769531 -39.609375 -22.234375 -41.023438 -21.328125 -42.421875 L -17.03125 -48.96875 L -7.40625 -42.65625 L -11.390625 -36.578125 C -14.066406 -32.492188 -13.3125 -29.078125 -9.125 -26.328125 L 9.328125 -14.21875 Z M 2.65625 -4.03125 "/></g></g></g><g fill="#fe1817" fill-opacity="1"><g transform="translate(195.801035, 89.648516)"><g><path d="M 14.0625 -19.96875 C 11.820312 -16.550781 9.03125 -13.976562 5.6875 -12.25 C 2.34375 -10.53125 -1.203125 -9.773438 -4.953125 -9.984375 C -8.703125 -10.191406 -12.257812 -11.398438 -15.625 -13.609375 C -19 -15.828125 -21.53125 -18.613281 -23.21875 -21.96875 C -24.90625 -25.320312 -25.625 -28.878906 -25.375 -32.640625 C -25.125 -36.398438 -23.878906 -39.988281 -21.640625 -43.40625 C -19.515625 -46.632812 -16.8125 -49.082031 -13.53125 -50.75 C -10.25 -52.425781 -6.769531 -53.148438 -3.09375 -52.921875 C 0.570312 -52.691406 4.023438 -51.515625 7.265625 -49.390625 C 8.472656 -48.597656 9.519531 -47.75 10.40625 -46.84375 L -6.046875 -21.796875 C -3.984375 -20.828125 -1.828125 -20.660156 0.421875 -21.296875 C 2.679688 -21.941406 4.488281 -23.300781 5.84375 -25.375 C 6.84375 -26.894531 7.40625 -28.382812 7.53125 -29.84375 C 7.65625 -31.3125 7.582031 -32.515625 7.3125 -33.453125 L 14.03125 -43.703125 C 15.257812 -42.253906 16.257812 -40.3125 17.03125 -37.875 C 17.8125 -35.4375 18.035156 -32.640625 17.703125 -29.484375 C 17.367188 -26.328125 16.15625 -23.15625 14.0625 -19.96875 Z M -2.078125 -41.171875 C -4.140625 -42.140625 -6.242188 -42.363281 -8.390625 -41.84375 C -10.546875 -41.320312 -12.269531 -40.078125 -13.5625 -38.109375 C -14.945312 -35.992188 -15.460938 -33.820312 -15.109375 -31.59375 C -14.765625 -29.375 -13.785156 -27.445312 -12.171875 -25.8125 Z M -2.078125 -41.171875 "/></g></g></g><g clip-path="url(#2aa72ba17a)"><g fill="#fe1817" fill-opacity="1"><g transform="translate(222.182492, 49.444146)"><g><path d="M 12.703125 -17.875 C 10.773438 -14.945312 8.265625 -12.765625 5.171875 -11.328125 C 2.078125 -9.898438 -1.296875 -9.359375 -4.953125 -9.703125 C -8.617188 -10.046875 -12.175781 -11.347656 -15.625 -13.609375 C -19.082031 -15.878906 -21.695312 -18.628906 -23.46875 -21.859375 C -25.25 -25.085938 -26.097656 -28.40625 -26.015625 -31.8125 C -25.929688 -35.21875 -24.925781 -38.382812 -23 -41.3125 C -21.625 -43.414062 -20.015625 -45.039062 -18.171875 -46.1875 C -16.328125 -47.332031 -14.722656 -47.960938 -13.359375 -48.078125 L -13.125 -48.421875 L -28.890625 -58.765625 L -22.21875 -68.9375 L 24.9375 -38 L 19.1875 -29.234375 L 15.375 -30.78125 L 15.15625 -30.453125 C 15.726562 -28.785156 15.84375 -26.851562 15.5 -24.65625 C 15.164062 -22.46875 14.234375 -20.207031 12.703125 -17.875 Z M 4.578125 -25.90625 C 6.023438 -28.113281 6.441406 -30.441406 5.828125 -32.890625 C 5.222656 -35.347656 3.644531 -37.414062 1.09375 -39.09375 C -1.46875 -40.78125 -3.984375 -41.40625 -6.453125 -40.96875 C -8.929688 -40.53125 -10.894531 -39.207031 -12.34375 -37 C -13.789062 -34.800781 -14.21875 -32.484375 -13.625 -30.046875 C -13.039062 -27.609375 -11.46875 -25.546875 -8.90625 -23.859375 C -6.351562 -22.179688 -3.828125 -21.550781 -1.328125 -21.96875 C 1.160156 -22.394531 3.128906 -23.707031 4.578125 -25.90625 Z M 4.578125 -25.90625 "/></g></g></g></g></g></g><g transform="matrix(1, 0, 0, 1, 96, 137)"><g clip-path="url(#36e6229f2b)"><g fill="#1e1e1e" fill-opacity="1"><g transform="translate(0.795304, 36.048321)"><g><path d="M 2.75 0 L 2.75 -27.4375 L 15.4375 -27.4375 C 17.21875 -27.4375 18.789062 -27.039062 20.15625 -26.25 C 21.53125 -25.46875 22.59375 -24.351562 23.34375 -22.90625 C 24.101562 -21.457031 24.484375 -19.78125 24.484375 -17.875 C 24.484375 -15.9375 24.101562 -14.234375 23.34375 -12.765625 C 22.59375 -11.304688 21.53125 -10.1875 20.15625 -9.40625 C 18.789062 -8.625 17.21875 -8.234375 15.4375 -8.234375 L 9.015625 -8.234375 L 9.015625 0 Z M 15.09375 -14.296875 C 16 -14.296875 16.742188 -14.613281 17.328125 -15.25 C 17.921875 -15.894531 18.21875 -16.753906 18.21875 -17.828125 C 18.21875 -18.898438 17.921875 -19.753906 17.328125 -20.390625 C 16.742188 -21.035156 16 -21.359375 15.09375 -21.359375 L 9.015625 -21.359375 L 9.015625 -14.296875 Z M 15.09375 -14.296875 "/></g></g></g><g fill="#1e1e1e" fill-opacity="1"><g transform="translate(26.656631, 36.048321)"><g><path d="M 14.890625 0.390625 C 12.429688 0.390625 10.179688 -0.210938 8.140625 -1.421875 C 6.109375 -2.640625 4.503906 -4.316406 3.328125 -6.453125 C 2.148438 -8.597656 1.5625 -11.019531 1.5625 -13.71875 C 1.5625 -16.40625 2.148438 -18.816406 3.328125 -20.953125 C 4.503906 -23.097656 6.109375 -24.78125 8.140625 -26 C 10.179688 -27.21875 12.429688 -27.828125 14.890625 -27.828125 C 17.347656 -27.828125 19.59375 -27.21875 21.625 -26 C 23.664062 -24.78125 25.273438 -23.097656 26.453125 -20.953125 C 27.628906 -18.816406 28.21875 -16.40625 28.21875 -13.71875 C 28.21875 -11.019531 27.628906 -8.597656 26.453125 -6.453125 C 25.273438 -4.316406 23.664062 -2.640625 21.625 -1.421875 C 19.59375 -0.210938 17.347656 0.390625 14.890625 0.390625 Z M 14.890625 -5.6875 C 16.191406 -5.6875 17.378906 -6.019531 18.453125 -6.6875 C 19.523438 -7.351562 20.375 -8.289062 21 -9.5 C 21.625 -10.71875 21.9375 -12.125 21.9375 -13.71875 C 21.9375 -15.3125 21.625 -16.710938 21 -17.921875 C 20.375 -19.140625 19.523438 -20.082031 18.453125 -20.75 C 17.378906 -21.414062 16.191406 -21.75 14.890625 -21.75 C 13.585938 -21.75 12.398438 -21.414062 11.328125 -20.75 C 10.253906 -20.082031 9.40625 -19.140625 8.78125 -17.921875 C 8.15625 -16.710938 7.84375 -15.3125 7.84375 -13.71875 C 7.84375 -12.125 8.15625 -10.71875 8.78125 -9.5 C 9.40625 -8.289062 10.253906 -7.351562 11.328125 -6.6875 C 12.398438 -6.019531 13.585938 -5.6875 14.890625 -5.6875 Z M 14.890625 -5.6875 "/></g></g></g><g fill="#1e1e1e" fill-opacity="1"><g transform="translate(56.436352, 36.048321)"><g><path d="M 14.890625 0 L 6.859375 0 L 0.203125 -27.4375 L 7.046875 -27.4375 L 10.96875 -10.78125 L 11.75 -10.78125 L 16.0625 -27.4375 L 22.734375 -27.4375 L 27.046875 -10.78125 L 27.828125 -10.78125 L 31.734375 -27.4375 L 38.59375 -27.4375 L 31.9375 0 L 23.90625 0 L 19.796875 -16.453125 L 19 -16.453125 Z M 14.890625 0 "/></g></g></g><g fill="#1e1e1e" fill-opacity="1"><g transform="translate(95.228319, 36.048321)"><g><path d="M 21.546875 0 L 2.75 0 L 2.75 -27.4375 L 21.546875 -27.4375 L 21.546875 -21.75 L 9.015625 -21.75 L 9.015625 -16.453125 L 20.765625 -16.453125 L 20.765625 -10.96875 L 9.015625 -10.96875 L 9.015625 -5.6875 L 21.546875 -5.6875 Z M 21.546875 0 "/></g></g></g><g fill="#1e1e1e" fill-opacity="1"><g transform="translate(118.738631, 36.048321)"><g><path d="M 25.46875 0 L 17.671875 0 L 10 -8.8125 L 9.015625 -8.8125 L 9.015625 0 L 2.75 0 L 2.75 -27.4375 L 15.71875 -27.4375 C 17.46875 -27.4375 19.019531 -27.035156 20.375 -26.234375 C 21.738281 -25.441406 22.796875 -24.332031 23.546875 -22.90625 C 24.304688 -21.476562 24.6875 -19.828125 24.6875 -17.953125 C 24.6875 -16.328125 24.351562 -14.84375 23.6875 -13.5 C 23.019531 -12.15625 22.125 -11.082031 21 -10.28125 C 19.875 -9.488281 18.648438 -9.050781 17.328125 -8.96875 Z M 9.015625 -14.5 L 15.359375 -14.5 C 16.222656 -14.5 16.945312 -14.832031 17.53125 -15.5 C 18.125 -16.164062 18.421875 -17.007812 18.421875 -18.03125 C 18.421875 -19.039062 18.125 -19.878906 17.53125 -20.546875 C 16.945312 -21.210938 16.222656 -21.546875 15.359375 -21.546875 L 9.015625 -21.546875 Z M 9.015625 -14.5 "/></g></g></g><g fill="#1e1e1e" fill-opacity="1"><g transform="translate(145.383647, 36.048321)"><g><path d="M 21.546875 0 L 2.75 0 L 2.75 -27.4375 L 21.546875 -27.4375 L 21.546875 -21.75 L 9.015625 -21.75 L 9.015625 -16.453125 L 20.765625 -16.453125 L 20.765625 -10.96875 L 9.015625 -10.96875 L 9.015625 -5.6875 L 21.546875 -5.6875 Z M 21.546875 0 "/></g></g></g><g fill="#1e1e1e" fill-opacity="1"><g transform="translate(168.893958, 36.048321)"><g><path d="M 2.75 0 L 2.75 -27.4375 L 12.9375 -27.4375 C 15.382812 -27.4375 17.628906 -26.832031 19.671875 -25.625 C 21.710938 -24.425781 23.316406 -22.78125 24.484375 -20.6875 C 25.660156 -18.601562 26.25 -16.28125 26.25 -13.71875 C 26.25 -11.15625 25.660156 -8.828125 24.484375 -6.734375 C 23.316406 -4.648438 21.710938 -3.003906 19.671875 -1.796875 C 17.628906 -0.597656 15.382812 0 12.9375 0 Z M 12.9375 -6.078125 C 14.238281 -6.078125 15.425781 -6.398438 16.5 -7.046875 C 17.570312 -7.703125 18.421875 -8.609375 19.046875 -9.765625 C 19.671875 -10.929688 19.984375 -12.25 19.984375 -13.71875 C 19.984375 -15.175781 19.671875 -16.484375 19.046875 -17.640625 C 18.421875 -18.804688 17.570312 -19.71875 16.5 -20.375 C 15.425781 -21.03125 14.238281 -21.359375 12.9375 -21.359375 L 9.015625 -21.359375 L 9.015625 -6.078125 Z M 12.9375 -6.078125 "/></g></g></g></g></g><g transform="matrix(1, 0, 0, 1, 58, 514)"><g clip-path="url(#b55a8e9e38)"><g fill="#1e1e1e" fill-opacity="1"><g transform="translate(1.999998, 21.385396)"><g><path d="M 6.765625 0.609375 L 5.015625 0.609375 L -0.109375 -14.65625 L 1.65625 -14.65625 Z M 6.765625 0.609375 "/></g></g></g><g fill="#1e1e1e" fill-opacity="1"><g transform="translate(8.657273, 21.385396)"><g><path d="M 6.765625 0.609375 L 5.015625 0.609375 L -0.109375 -14.65625 L 1.65625 -14.65625 Z M 6.765625 0.609375 "/></g></g></g><g fill="#1e1e1e" fill-opacity="1"><g transform="translate(15.314548, 21.385396)"><g><path d="M 6.765625 0.609375 L 5.015625 0.609375 L -0.109375 -14.65625 L 1.65625 -14.65625 Z M 6.765625 0.609375 "/></g></g></g><g fill="#1e1e1e" fill-opacity="1"><g transform="translate(21.971822, 21.385396)"><g><path d="M 6.765625 0.609375 L 5.015625 0.609375 L -0.109375 -14.65625 L 1.65625 -14.65625 Z M 6.765625 0.609375 "/></g></g></g><g fill="#1e1e1e" fill-opacity="1"><g transform="translate(28.629097, 21.385396)"><g><path d="M 6.765625 0.609375 L 5.015625 0.609375 L -0.109375 -14.65625 L 1.65625 -14.65625 Z M 6.765625 0.609375 "/></g></g></g><g fill="#1e1e1e" fill-opacity="1"><g transform="translate(35.286372, 21.385396)"><g><path d="M 6.765625 0.609375 L 5.015625 0.609375 L -0.109375 -14.65625 L 1.65625 -14.65625 Z M 6.765625 0.609375 "/></g></g></g><g fill="#1e1e1e" fill-opacity="1"><g transform="translate(41.943647, 21.385396)"><g><path d="M 6.765625 0.609375 L 5.015625 0.609375 L -0.109375 -14.65625 L 1.65625 -14.65625 Z M 6.765625 0.609375 "/></g></g></g><g fill="#1e1e1e" fill-opacity="1"><g transform="translate(48.600922, 21.385396)"><g><path d="M 6.765625 0.609375 L 5.015625 0.609375 L -0.109375 -14.65625 L 1.65625 -14.65625 Z M 6.765625 0.609375 "/></g></g></g></g></g></svg>